<?xml version="1.0" encoding="UTF-8"?>
<svg width="22px" height="22px" viewBox="0 0 22 22" version="1.1" xmlns="http://www.w3.org/2000/svg" xmlns:xlink="http://www.w3.org/1999/xlink">
    <!-- Generator: Sketch 48.1 (47250) - http://www.bohemiancoding.com/sketch -->
    <title>Page 1 Copy</title>
    <desc>Created with Sketch.</desc>
    <defs></defs>
    <g id="Name-Project" stroke="none" stroke-width="1" fill="none" fill-rule="evenodd" transform="translate(-363.000000, -190.000000)">
        <path d="M374,191 C370.565301,191 367.406024,192.751084 365.575422,195.615181 L364.996386,192.769639 L364.28747,192.914458 L365.153976,197.168675 L369.333494,195.995663 L369.138554,195.298795 L366.089639,196.155181 C367.77253,193.408916 370.753494,191.722892 374,191.722892 C379.115422,191.722892 383.277108,195.884578 383.277108,201 C383.277108,206.115422 379.115422,210.277108 374,210.277108 C368.884578,210.277108 364.722892,206.115422 364.722892,201 L364,201 C364,206.513976 368.486024,211 374,211 C379.513976,211 384,206.513976 384,201 C384,195.486024 379.513976,191 374,191" id="Page-1-Copy" stroke="#979797" fill="#9B9B9B"></path>
    </g>
</svg>