<?xml version="1.0" encoding="UTF-8"?>
<svg width="14px" height="18px" viewBox="0 0 14 18" version="1.1" xmlns="http://www.w3.org/2000/svg" xmlns:xlink="http://www.w3.org/1999/xlink">
    <!-- Generator: Sketch 48.1 (47250) - http://www.bohemiancoding.com/sketch -->
    <title>ic/format_underlined/grey600 copy</title>
    <desc>Created with Sketch.</desc>
    <defs></defs>
    <g id="Name-Project" stroke="none" stroke-width="1" fill="none" fill-rule="evenodd" transform="translate(-938.000000, -192.000000)">
        <g id="ic/format_underlined/grey600" transform="translate(933.000000, 189.000000)">
            <g id="ic_format_underlined_24px">
                <polygon id="Shape" points="0 0 24 0 24 24 0 24"></polygon>
                <path d="M12,17 C15.31,17 18,14.31 18,11 L18,3 L15.5,3 L15.5,11 C15.5,12.93 13.93,14.5 12,14.5 C10.07,14.5 8.5,12.93 8.5,11 L8.5,3 L6,3 L6,11 C6,14.31 8.69,17 12,17 Z M5,19 L5,21 L19,21 L19,19 L5,19 Z" id="Shape" fill="#999999" fill-rule="nonzero"></path>
            </g>
        </g>
    </g>
</svg>