<?xml version="1.0" encoding="UTF-8"?>
<svg width="26px" height="26px" viewBox="0 0 26 26" version="1.1" xmlns="http://www.w3.org/2000/svg" xmlns:xlink="http://www.w3.org/1999/xlink">
    <!-- Generator: Sketch 48.1 (47250) - http://www.bohemiancoding.com/sketch -->
    <title>Group 11</title>
    <desc>Created with Sketch.</desc>
    <defs></defs>
    <g id="Name-Project" stroke="none" stroke-width="1" fill="none" fill-rule="evenodd" transform="translate(-485.000000, -188.000000)" fill-opacity="0.4">
        <g id="Group-11" transform="translate(485.000000, 188.000000)" fill="#000000" fill-rule="nonzero">
            <path d="M10.0105328,1.45787812 C10.4835371,1.33811562 10.9700723,1.24714219 11.457759,1.18610937 C11.5792488,1.17113906 11.7001629,1.15789609 11.8205012,1.14666836 L11.7128301,0 C11.6279023,0.00777304688 11.5432625,0.0169855469 11.4589105,0.0267738281 L11.4583348,0.0267738281 C11.4563195,0.0270617188 11.4543043,0.0273496094 11.4522891,0.0276375 L11.4520012,0.0276375 C11.4459555,0.0279253906 11.439334,0.0287890625 11.4332883,0.0296527344 L11.4327125,0.0296527344 C11.4309852,0.0302285156 11.4289699,0.0305164062 11.4272426,0.0302285156 C11.4269547,0.0302285156 11.4269547,0.0302285156 11.4263789,0.0302285156 C11.4246516,0.0302285156 11.4229242,0.0305164062 11.4214848,0.0308042969 C11.4211969,0.0308042969 11.4206211,0.0308042969 11.4203332,0.0308042969 C11.418318,0.0308042969 11.4165906,0.0313800781 11.4148633,0.0313800781 C11.4145754,0.0313800781 11.4145754,0.0313800781 11.4142875,0.0313800781 C11.4099691,0.0319558594 11.4062266,0.03224375 11.4021961,0.0328195312 C11.4016203,0.0328195312 11.4013324,0.0328195312 11.4010445,0.0328195312 C11.3993172,0.0331074219 11.3975898,0.0333953125 11.3961504,0.0336832031 C11.3955746,0.0339710937 11.3952867,0.0339710937 11.3947109,0.0339710937 C11.3932715,0.0342589844 11.391832,0.0342589844 11.3901047,0.0348347656 C11.3898168,0.0348347656 11.3889531,0.0348347656 11.3886652,0.0351226562 C11.3872258,0.0351226562 11.3854984,0.0354105469 11.384059,0.0356984375 C11.3834832,0.0354105469 11.3831953,0.0354105469 11.3826195,0.0354105469 C11.3785891,0.0356984375 11.3751344,0.0359863281 11.3711039,0.0365621094 C11.370816,0.0365621094 11.3696645,0.03685 11.3693766,0.03685 C11.3679371,0.03685 11.3664977,0.0371378906 11.3650582,0.0374257812 C11.3641945,0.0374257812 11.3639066,0.0374257812 11.363043,0.0374257812 C11.3616035,0.0380015625 11.3601641,0.0380015625 11.3590125,0.0380015625 C11.3584367,0.0380015625 11.357573,0.0382894531 11.3569973,0.0382894531 C11.3555578,0.0382894531 11.3541184,0.0385773437 11.3526789,0.0388652344 C11.3518152,0.0388652344 11.3521031,0.0388652344 11.3512395,0.0388652344 C11.347209,0.0397289062 11.3434664,0.0403046875 11.3394359,0.0405925781 C11.3385723,0.0408804687 11.3382844,0.0405925781 11.3374207,0.0405925781 C11.3362691,0.0408804687 11.3348297,0.0411683594 11.3333902,0.04145625 C11.3328145,0.04145625 11.3322387,0.04145625 11.331375,0.0417441406 C11.3302234,0.0417441406 11.3290719,0.0420320312 11.3276324,0.0420320312 C11.3267687,0.0423199219 11.326193,0.0423199219 11.3253293,0.0423199219 C11.3238898,0.0426078125 11.3224504,0.0426078125 11.3212988,0.0428957031 C11.3201473,0.0431835937 11.3204352,0.0431835938 11.3195715,0.0434714844 C11.3175562,0.0434714844 11.315541,0.0434714844 11.3135258,0.043759375 C11.3115105,0.0440472656 11.3094953,0.0440472656 11.3074801,0.0443351562 C11.3066164,0.0446230469 11.3063285,0.0446230469 11.3054648,0.0446230469 C11.3063285,0.0446230469 11.3048891,0.0446230469 11.3034496,0.0449109375 C11.3025859,0.0449109375 11.3020102,0.0451988281 11.3011465,0.0451988281 C11.2999949,0.0454867188 11.2985555,0.0454867188 11.2974039,0.0457746094 C11.2968281,0.0457746094 11.2956766,0.0457746094 11.2951008,0.0463503906 C11.2939492,0.0460625 11.2922219,0.0466382812 11.2907824,0.0466382812 C11.2904945,0.0469261719 11.2896309,0.0469261719 11.289343,0.0469261719 C11.2873277,0.0472140625 11.2853125,0.0475019531 11.2832973,0.0475019531 C11.2827215,0.0477898438 11.2827215,0.0477898438 11.2821457,0.0477898438 C11.2807062,0.048365625 11.2792668,0.048365625 11.2775395,0.0486535156 C11.2769637,0.0486535156 11.2758121,0.0486535156 11.2755242,0.0486535156 C11.2743727,0.0486535156 11.2729332,0.0489414063 11.2714937,0.0489414063 C11.2706301,0.0489414063 11.2703422,0.0489414063 11.2694785,0.0489414063 C11.2680391,0.0492292969 11.2665996,0.0498050781 11.265448,0.0498050781 C11.2645844,0.0498050781 11.2640086,0.0500929688 11.2631449,0.0500929688 C11.2614176,0.0503808594 11.2596902,0.0503808594 11.2579629,0.05066875 C11.257675,0.05066875 11.2568113,0.05066875 11.2562355,0.0509566406 C11.2545082,0.0509566406 11.2530687,0.0515324219 11.2510535,0.0521082031 C11.2501898,0.0521082031 11.249902,0.0521082031 11.2490383,0.0521082031 C11.2475988,0.0521082031 11.2464473,0.0523960938 11.2450078,0.0523960938 C11.2441441,0.0526839844 11.2435684,0.0526839844 11.2427047,0.0526839844 C11.2415531,0.052971875 11.2401137,0.0526839844 11.2389621,0.0535476563 C11.2380984,0.0535476563 11.2375227,0.0535476563 11.236659,0.0538355469 C11.2352195,0.0538355469 11.2337801,0.0541234375 11.2323406,0.0544113281 C11.2320527,0.0544113281 11.2311891,0.0544113281 11.2309012,0.0544113281 C11.2291738,0.0546992188 11.2271586,0.0549871094 11.2251434,0.0549871094 C11.2245676,0.055275 11.2239918,0.055275 11.2237039,0.055275 C11.2222645,0.0555628906 11.2205371,0.0558507813 11.2190977,0.0558507813 C11.2188098,0.0558507813 11.2173703,0.0561386719 11.2167945,0.0561386719 C11.215643,0.0564265625 11.2144914,0.0564265625 11.2133398,0.0567144531 C11.2124762,0.0567144531 11.2116125,0.0567144531 11.2107488,0.0572902344 C11.2095973,0.0572902344 11.2084457,0.0578660156 11.2070062,0.0578660156 C11.2061426,0.0581539063 11.2055668,0.0581539063 11.2047031,0.0578660156 C11.2029758,0.0578660156 11.2015363,0.0581539063 11.199809,0.0581539063 C11.1995211,0.0581539063 11.1992332,0.0581539063 11.1989453,0.0584417969 C11.1969301,0.0587296875 11.1949148,0.0590175781 11.1928996,0.0593054688 C11.1920359,0.0593054688 11.191748,0.0595933594 11.1905965,0.0595933594 C11.189157,0.05988125 11.1880055,0.05988125 11.186566,0.0601691406 C11.1857023,0.0604570313 11.1851266,0.0604570313 11.1842629,0.0607449219 C11.1831113,0.0607449219 11.1819598,0.0613207031 11.1808082,0.0610328125 C11.1799445,0.0610328125 11.1793687,0.0613207031 11.1782172,0.0613207031 C11.1773535,0.0616085938 11.1759141,0.0618964844 11.1747625,0.062184375 C11.1738988,0.062184375 11.173323,0.062184375 11.1724594,0.0624722656 C11.170732,0.0624722656 11.1687168,0.0627601563 11.1669895,0.0630480469 C11.1664137,0.0630480469 11.16555,0.0633359375 11.1649742,0.0633359375 C11.1635348,0.0633359375 11.1623832,0.0636238281 11.1609437,0.0636238281 C11.160368,0.0639117188 11.1589285,0.0639117188 11.1583527,0.0636238281 C11.1572012,0.0639117188 11.1560496,0.0639117188 11.154898,0.0644875 C11.1540344,0.0644875 11.1531707,0.0647753906 11.152307,0.0647753906 C11.154898,0.0644875 11.1537465,0.0647753906 11.152307,0.0647753906 C11.1520191,0.0650632812 11.1508676,0.0650632812 11.1502918,0.0650632812 C11.1485645,0.0653511719 11.147125,0.0656390625 11.1453977,0.0656390625 C11.1448219,0.0659269531 11.1448219,0.0659269531 11.1442461,0.0662148437 C11.1422309,0.0665027344 11.1402156,0.0665027344 11.1384883,0.0665027344 C11.1376246,0.0665027344 11.1370488,0.0665027344 11.1361852,0.066790625 C11.1350336,0.0670785156 11.1335941,0.0670785156 11.1324426,0.0676542969 C11.1315789,0.0676542969 11.1310031,0.0676542969 11.1301395,0.0682300781 C11.1289879,0.0682300781 11.1275484,0.0685179688 11.1263969,0.0685179688 C11.1255332,0.0688058594 11.1246695,0.0688058594 11.1238059,0.0688058594 C11.1226543,0.06909375 11.1215027,0.06909375 11.1200633,0.0693816406 C11.1194875,0.0693816406 11.1189117,0.0693816406 11.118048,0.0696695313 C11.1163207,0.0696695313 11.1148812,0.0699574219 11.1131539,0.0705332031 C11.1117145,0.0705332031 11.1114266,0.0705332031 11.110275,0.0708210938 C11.1088355,0.0711089844 11.107684,0.0711089844 11.1062445,0.071396875 C11.1059566,0.071396875 11.1045172,0.071396875 11.1039414,0.0716847656 C11.1027898,0.0716847656 11.1016383,0.0719726563 11.1004867,0.0719726563 C11.099623,0.0719726563 11.0987594,0.0722605469 11.0978957,0.0722605469 C11.0964562,0.0725484375 11.0953047,0.0728363281 11.0941531,0.0731242188 C11.0935773,0.0728363281 11.09185,0.0728363281 11.0915621,0.0731242188 C11.0901227,0.0731242188 11.0889711,0.0734121094 11.0875316,0.0737 C11.086668,0.0739878906 11.086668,0.0739878906 11.0858043,0.0739878906 C11.084077,0.0745636719 11.0820617,0.0748515625 11.0800465,0.0748515625 C11.0791828,0.0754273438 11.0788949,0.0754273438 11.0780312,0.0754273438 C11.0768797,0.0757152344 11.0754402,0.0757152344 11.0742887,0.0762910156 C11.073425,0.0762910156 11.0728492,0.0765789063 11.0719855,0.0765789063 C11.0705461,0.0762910156 11.0693945,0.0765789063 11.068243,0.0765789063 C11.0673793,0.0768667969 11.0668035,0.0768667969 11.0659398,0.0765789063 C11.0645004,0.0768667969 11.0633488,0.0771546875 11.0621973,0.0774425781 C11.0613336,0.0774425781 11.0604699,0.0780183594 11.0596062,0.0780183594 C11.0578789,0.07830625 11.0561516,0.07830625 11.0541363,0.0785941406 C11.0535605,0.0785941406 11.0532727,0.0788820313 11.0526969,0.0788820313 C11.0512574,0.0791699219 11.0495301,0.0794578125 11.0480906,0.0794578125 C11.0475148,0.0794578125 11.0463633,0.0797457031 11.0460754,0.0800335938 C11.0446359,0.0800335938 11.0431965,0.0803214844 11.0420449,0.0803214844 C11.0411812,0.080609375 11.0406055,0.080609375 11.0397418,0.080609375 C11.0385902,0.0808972656 11.0374387,0.0808972656 11.0362871,0.0811851563 C11.0354234,0.0814730469 11.0345598,0.0814730469 11.0336961,0.0817609375 C11.0351355,0.0817609375 11.0342719,0.0820488281 11.0328324,0.0820488281 C11.0319687,0.0823367188 11.031393,0.0823367188 11.0305293,0.0823367188 C11.028802,0.0826246094 11.0270746,0.0826246094 11.0250594,0.0832003906 C11.0241957,0.0832003906 11.0236199,0.0832003906 11.0224684,0.0834882813 C11.0216047,0.0837761719 11.0201652,0.0840640625 11.0193016,0.0840640625 C11.01815,0.0840640625 11.0172863,0.0843519531 11.0164227,0.0843519531 C11.0152711,0.0846398438 11.0144074,0.0846398438 11.0132559,0.0846398438 C11.0123922,0.085215625 11.0109527,0.085215625 11.0100891,0.0855035156 C11.0092254,0.0855035156 11.0080738,0.0857914063 11.0072102,0.0860792969 C11.0063465,0.0860792969 11.0051949,0.0860792969 11.0043312,0.0860792969 C11.0028918,0.0863671875 11.0014523,0.0863671875 11.0003008,0.0869429688 C10.9994371,0.0869429688 10.9979977,0.0872308594 10.997134,0.0869429688 C10.9968461,0.0872308594 10.9954066,0.0872308594 10.9942551,0.0878066406 C10.9933914,0.0878066406 10.9925277,0.0878066406 10.9916641,0.0878066406 C10.9905125,0.0878066406 10.9893609,0.0883824219 10.9882094,0.0883824219 C10.9873457,0.0886703125 10.986482,0.0886703125 10.9856184,0.0886703125 C10.9844668,0.0889582031 10.9833152,0.0886703125 10.9821637,0.0889582031 C10.9813,0.0889582031 10.9804363,0.0895339844 10.9795727,0.089821875 C10.9784211,0.0901097656 10.9772695,0.0903976562 10.976118,0.0903976562 C10.9755422,0.0906855469 10.9752543,0.0906855469 10.9743906,0.0906855469 C10.9726633,0.0909734375 10.970648,0.0912613281 10.9689207,0.0915492187 C10.968057,0.0918371094 10.9663297,0.0924128906 10.965466,0.0924128906 C10.9646023,0.0924128906 10.9637387,0.0927007812 10.962875,0.0924128906 C10.9614355,0.0927007812 10.9605719,0.0924128906 10.9594203,0.0924128906 C10.9585566,0.0927007812 10.957693,0.0929886719 10.9568293,0.0929886719 C10.9559656,0.0932765625 10.9545262,0.0932765625 10.9536625,0.0935644531 C10.9527988,0.0938523437 10.9516473,0.0941402344 10.9507836,0.0941402344 C10.949632,0.0941402344 10.9487684,0.094428125 10.9473289,0.094428125 C10.9467531,0.0950039062 10.9456016,0.0950039062 10.9447379,0.0950039062 C10.9430105,0.0952917969 10.9407074,0.0955796875 10.9389801,0.0958675781 C10.9381164,0.0958675781 10.9372527,0.0964433594 10.9363891,0.0964433594 C10.9352375,0.0964433594 10.9340859,0.09673125 10.9329344,0.09673125 C10.9320707,0.0970191406 10.931207,0.0970191406 10.9306312,0.0970191406 C10.9297676,0.0973070312 10.9280402,0.0975949219 10.9271766,0.0978828125 C10.9263129,0.0978828125 10.9254492,0.0978828125 10.9245855,0.0981707031 C10.923434,0.0984585938 10.9225703,0.0987464844 10.9211309,0.0987464844 C10.9205551,0.0987464844 10.9196914,0.099034375 10.9188277,0.099034375 C10.9147973,0.0996101562 10.9107668,0.100473828 10.9067363,0.101049609 C10.9061605,0.1013375 10.9055848,0.1013375 10.9052969,0.1013375 C10.9038574,0.101625391 10.9029937,0.101625391 10.9015543,0.101913281 C10.9006906,0.101913281 10.9001148,0.102201172 10.8992512,0.102201172 C10.8983875,0.102489063 10.8966602,0.103064844 10.8957965,0.103064844 C10.8949328,0.103064844 10.894357,0.103352734 10.8934934,0.103352734 C10.8923418,0.102776953 10.8914781,0.103352734 10.8900387,0.103352734 C10.8894629,0.103640625 10.889175,0.103640625 10.8885992,0.103640625 C10.8860082,0.103928516 10.8828414,0.104504297 10.8802504,0.105367969 C10.8799625,0.105367969 10.8796746,0.105367969 10.8793867,0.105367969 C10.8782352,0.105367969 10.8767957,0.105655859 10.8756441,0.105655859 C10.8747805,0.106231641 10.8742047,0.106519531 10.8736289,0.106519531 C10.8721895,0.106807422 10.8713258,0.106807422 10.8698863,0.106807422 C10.8693105,0.107095313 10.8684469,0.107095313 10.8678711,0.107383203 C10.8667195,0.107383203 10.8658559,0.107958984 10.8644164,0.107958984 C10.8641285,0.107958984 10.8635527,0.108246875 10.862977,0.108246875 C10.8583707,0.108534766 10.8537645,0.109686328 10.8494461,0.11055 C10.8488703,0.11055 10.8485824,0.11055 10.8482945,0.11055 C10.8468551,0.11055 10.8454156,0.11055 10.8439762,0.110837891 C10.8434004,0.110837891 10.8431125,0.110837891 10.8425367,0.110837891 C10.8419609,0.111701563 10.8396578,0.111989453 10.8387941,0.111989453 C10.8382184,0.111989453 10.8376426,0.112277344 10.8370668,0.112277344 C10.8356273,0.112277344 10.8341879,0.112853125 10.8327484,0.113141016 C10.8327484,0.113141016 10.8324605,0.113141016 10.8321727,0.113141016 C10.8272785,0.114004688 10.8238238,0.114292578 10.8192176,0.11515625 C10.8183539,0.115444141 10.8177781,0.115444141 10.8172023,0.115444141 C10.8157629,0.115732031 10.8146113,0.115732031 10.8131719,0.116307813 C10.8125961,0.116307813 10.8120203,0.116595703 10.8114445,0.116883594 C10.810293,0.116883594 10.8082777,0.117171484 10.8071262,0.117171484 C10.8071262,0.117171484 10.8062625,0.117459375 10.8059746,0.117459375 C10.8010805,0.118035156 10.7964742,0.119186719 10.791868,0.1197625 C10.7915801,0.1197625 10.7915801,0.1197625 10.7912922,0.1197625 C10.7898527,0.120338281 10.7884133,0.120338281 10.7869738,0.120338281 C10.786398,0.120626172 10.7861102,0.120626172 10.7855344,0.120626172 C10.783807,0.120914063 10.7829434,0.121201953 10.781216,0.121489844 C10.7809281,0.121489844 10.7803523,0.121489844 10.7800645,0.121489844 C10.778625,0.121489844 10.7768977,0.121777734 10.7754582,0.122353516 L10.7751703,0.122353516 C10.7697004,0.123217188 10.7656699,0.12436875 10.7602,0.125232422 C10.7599121,0.125232422 10.7599121,0.125232422 10.7596242,0.125232422 C10.7578969,0.125520313 10.7567453,0.125520313 10.755018,0.126096094 C10.7547301,0.126096094 10.7544422,0.126096094 10.7538664,0.126383984 C10.7521391,0.126096094 10.7512754,0.126383984 10.749548,0.126671875 C10.7492602,0.126671875 10.7489723,0.126959766 10.7486844,0.126959766 C10.7423508,0.128399219 10.7363051,0.129262891 10.7296836,0.130414453 C10.7293957,0.130414453 10.7291078,0.130414453 10.7288199,0.130414453 C10.7270926,0.130702344 10.725941,0.130990234 10.7245016,0.131278125 C10.7242137,0.131278125 10.7239258,0.131278125 10.7236379,0.131566016 C10.7170164,0.132717578 10.7103949,0.13358125 10.7034855,0.135020703 C10.7017582,0.135308594 10.7006066,0.135596484 10.6988793,0.135884375 C10.6985914,0.135884375 10.6983035,0.135884375 10.6983035,0.135884375 C10.6962883,0.136172266 10.6951367,0.136460156 10.6931215,0.136748047 C10.6931215,0.136748047 10.6931215,0.136748047 10.6928336,0.137035938 C10.6862121,0.137899609 10.6795906,0.138763281 10.6726812,0.140202734 L10.675848,0.140202734 C10.6741207,0.140778516 10.6723934,0.141066406 10.670666,0.140778516 C10.3519711,0.196917188 10.0378824,0.264571484 9.7284,0.342589844 L10.0105328,1.45787812 Z M6.64940977,2.89445234 C7.16674922,2.5702875 7.71230195,2.28412422 8.27397656,2.04488711 L7.82112461,0.985161719 L7.82083672,0.985161719 C7.81853359,0.986313281 7.81623047,0.987464844 7.81450313,0.988616406 C7.81392734,0.988616406 7.81392734,0.988616406 7.81363945,0.988904297 C7.8090332,0.990631641 7.80442695,0.992934766 7.79953281,0.99495 C7.79924492,0.995525781 7.79895703,0.995525781 7.79866914,0.995525781 C7.79636602,0.996389453 7.79406289,0.997253125 7.79204766,0.998116797 L7.79118398,0.998404688 C7.78916875,0.99955625 7.78686563,1.00070781 7.78513828,1.00157148 L7.78427461,1.00185938 C7.78254727,1.00272305 7.78024414,1.00358672 7.77794102,1.00445039 C7.77736523,1.00473828 7.77736523,1.00502617 7.77678945,1.00502617 C7.77477422,1.00588984 7.77247109,1.00704141 7.77074375,1.00790508 L7.77016797,1.00790508 C7.76815273,1.00905664 7.76584961,1.00992031 7.76412227,1.01078398 C7.76325859,1.01135977 7.7629707,1.01164766 7.76210703,1.01193555 C7.7600918,1.01251133 7.75807656,1.01366289 7.75606133,1.01395078 C7.75548555,1.01423867 7.75548555,1.01452656 7.75490977,1.01452656 C7.75318242,1.01539023 7.75145508,1.0165418 7.74943984,1.01740547 C7.74915195,1.01740547 7.74828828,1.01798125 7.74800039,1.01826914 C7.74569727,1.01913281 7.74368203,1.01999648 7.74195469,1.02086016 C7.74137891,1.02114805 7.74051523,1.02143594 7.74022734,1.02143594 C7.73821211,1.02143594 7.73648477,1.02229961 7.73475742,1.02316328 C7.73446953,1.02316328 7.73360586,1.02345117 7.73331797,1.02345117 C7.73159063,1.02460273 7.7292875,1.02546641 7.72727227,1.02633008 C7.72640859,1.02633008 7.72583281,1.02633008 7.72496914,1.02690586 C7.7232418,1.02776953 7.72122656,1.0286332 7.71949922,1.02978477 C7.71892344,1.02978477 7.71805977,1.03036055 7.71777188,1.03036055 C7.71604453,1.03122422 7.71431719,1.0318 7.71287773,1.03266367 C7.71230195,1.03237578 7.71115039,1.03295156 7.7108625,1.03323945 C7.70855938,1.03410313 7.70683203,1.0349668 7.7048168,1.03583047 C7.70424102,1.03640625 7.70337734,1.03669414 7.70251367,1.03698203 C7.70078633,1.03755781 7.69963477,1.03870938 7.69819531,1.03928516 C7.69733164,1.03928516 7.69675586,1.03986094 7.69589219,1.04014883 C7.69387695,1.04130039 7.6924375,1.04216406 7.69042227,1.04273984 C7.68984648,1.04302773 7.68869492,1.04302773 7.68783125,1.04360352 C7.68667969,1.04389141 7.68495234,1.04475508 7.68351289,1.04533086 C7.68207344,1.04590664 7.68120977,1.04619453 7.68034609,1.0470582 C7.67890664,1.04763398 7.67746719,1.04820977 7.67573984,1.04907344 C7.67487617,1.04936133 7.67372461,1.04964922 7.67314883,1.050225 C7.67142148,1.05080078 7.66940625,1.05166445 7.66739102,1.05252813 C7.66681523,1.05252813 7.66595156,1.0533918 7.66508789,1.0533918 C7.66364844,1.05425547 7.66249688,1.05454336 7.66134531,1.05540703 C7.66076953,1.05540703 7.65961797,1.0562707 7.65904219,1.05655859 C7.65702695,1.05742227 7.65529961,1.05771016 7.65386016,1.05828594 C7.65299648,1.05857383 7.65155703,1.05972539 7.65069336,1.06001328 C7.6495418,1.06058906 7.64839023,1.06087695 7.64723867,1.06145273 C7.64551133,1.06231641 7.64407188,1.06289219 7.64234453,1.06375586 C7.64148086,1.06404375 7.64004141,1.06461953 7.63888984,1.06490742 C7.63802617,1.06577109 7.63687461,1.06634688 7.63601094,1.06663477 C7.63457148,1.06721055 7.63284414,1.06807422 7.6311168,1.06893789 C7.62996523,1.06922578 7.62910156,1.06951367 7.62823789,1.07037734 C7.62708633,1.07066523 7.62593477,1.07124102 7.62449531,1.07152891 C7.62305586,1.07268047 7.62248008,1.07268047 7.62161641,1.07354414 C7.61988906,1.07383203 7.61787383,1.07440781 7.61614648,1.07498359 C7.61528281,1.07555938 7.61441914,1.07613516 7.61297969,1.07642305 C7.61211602,1.07699883 7.61096445,1.07728672 7.60981289,1.07815039 C7.60866133,1.07872617 7.6063582,1.07958984 7.60491875,1.08045352 C7.60376719,1.08074141 7.60319141,1.0810293 7.60203984,1.08160508 C7.60088828,1.08218086 7.59973672,1.08275664 7.59858516,1.08275664 C7.59772148,1.08333242 7.59685781,1.0839082 7.59570625,1.08477187 C7.59369102,1.08534766 7.59253945,1.08592344 7.59081211,1.087075 C7.58994844,1.08736289 7.58879688,1.08793867 7.5879332,1.08822656 C7.58620586,1.08909023 7.58447852,1.08937812 7.58303906,1.0902418 C7.5818875,1.09081758 7.58073594,1.09168125 7.57958438,1.09196914 C7.57843281,1.09254492 7.57728125,1.0931207 7.57612969,1.09369648 C7.57526602,1.09369648 7.57411445,1.09427227 7.57325078,1.09456016 C7.57497813,1.09369648 7.57296289,1.09456016 7.57094766,1.09542383 C7.57008398,1.09599961 7.56922031,1.0962875 7.56835664,1.09686328 C7.56749297,1.09715117 7.56576563,1.09801484 7.56490195,1.09830273 C7.56375039,1.09859063 7.56288672,1.09916641 7.56202305,1.0994543 C7.56000781,1.10060586 7.55828047,1.10118164 7.55626523,1.10204531 C7.55568945,1.1023332 7.55482578,1.10262109 7.55396211,1.10319688 C7.55281055,1.10377266 7.55137109,1.10406055 7.55021953,1.10434844 C7.54993164,1.10463633 7.54906797,1.10521211 7.54849219,1.1055 C7.54647695,1.10636367 7.54417383,1.10751523 7.54244648,1.10895469 C7.5418707,1.10924258 7.54129492,1.10953047 7.54071914,1.10981836 C7.53870391,1.11096992 7.53611289,1.11212148 7.53409766,1.11269727 C7.53352188,1.11298516 7.53294609,1.11298516 7.5326582,1.11327305 C7.53121875,1.11413672 7.53035508,1.11442461 7.52833984,1.11528828 C7.52776406,1.11557617 7.52690039,1.11586406 7.5266125,1.11643984 C7.52402148,1.11730352 7.52200625,1.11816719 7.52027891,1.11903086 C7.51970313,1.11960664 7.51883945,1.11989453 7.51826367,1.11989453 C7.51682422,1.12047031 7.51567266,1.12104609 7.51452109,1.12190977 C7.5142332,1.12190977 7.51394531,1.12219766 7.51365742,1.12219766 C7.5113543,1.12277344 7.50876328,1.12421289 7.50646016,1.12536445 C7.50588438,1.12565234 7.50530859,1.12594023 7.50473281,1.12622813 C7.5021418,1.12766758 7.49955078,1.12881914 7.49667188,1.13025859 C7.49638398,1.13025859 7.49638398,1.13025859 7.49609609,1.13025859 C7.49523242,1.13083438 7.49350508,1.13169805 7.49235352,1.13198594 C7.49148984,1.13256172 7.49091406,1.13256172 7.49005039,1.1331375 C7.48803516,1.13428906 7.48544414,1.13544063 7.4837168,1.1363043 C7.4837168,1.13544063 7.48342891,1.13572852 7.48314102,1.13572852 C7.48170156,1.1363043 7.47997422,1.13688008 7.47882266,1.13774375 L7.47853477,1.13774375 C7.47536797,1.1391832 7.47277695,1.14033477 7.47018594,1.14177422 C7.46989805,1.14177422 7.46932227,1.14235 7.46903438,1.14235 C7.46500391,1.14407734 7.46097344,1.14609258 7.45636719,1.14810781 C7.4560793,1.1483957 7.45550352,1.14868359 7.45521563,1.14897148 C7.45262461,1.15012305 7.45003359,1.15127461 7.44773047,1.15242617 C7.44744258,1.15242617 7.44744258,1.15271406 7.44715469,1.15271406 C7.44571523,1.15300195 7.44427578,1.15357773 7.44283633,1.15415352 C7.44283633,1.15415352 7.44283633,1.15415352 7.44254844,1.15415352 C7.43966953,1.15559297 7.43707852,1.15732031 7.4344875,1.15875977 C7.43391172,1.15875977 7.43362383,1.15904766 7.43304805,1.15904766 C7.42901758,1.16106289 7.42498711,1.16336602 7.42066875,1.16509336 C7.42009297,1.16538125 7.42009297,1.16566914 7.41951719,1.16566914 C7.41491094,1.16768438 7.41088047,1.16941172 7.40685,1.17171484 C7.40656211,1.17200273 7.40627422,1.17200273 7.40627422,1.17200273 C7.40310742,1.17344219 7.40109219,1.17401797 7.39792539,1.17574531 C7.3976375,1.17574531 7.3976375,1.1760332 7.39734961,1.1760332 C7.39303125,1.17833633 7.38957656,1.18035156 7.38439453,1.1823668 C7.38439453,1.18265469 7.38381875,1.18265469 7.38353086,1.18294258 C7.3792125,1.1852457 7.37489414,1.18668516 7.37057578,1.18898828 L7.37028789,1.18898828 C7.36740898,1.19042773 7.36481797,1.19186719 7.36193906,1.19330664 L7.36193906,1.19359453 C7.3576207,1.19532188 7.35301445,1.19733711 7.34869609,1.19964023 C7.3484082,1.19964023 7.34783242,1.19992813 7.34754453,1.20021602 C7.34322617,1.20194336 7.3391957,1.20395859 7.33487734,1.20626172 C7.33458945,1.20626172 7.33430156,1.20654961 7.33401367,1.20654961 C7.33113477,1.20798906 7.32883164,1.20914063 7.32595273,1.21058008 L7.32566484,1.21058008 C7.32105859,1.21317109 7.31731602,1.21518633 7.31299766,1.21691367 C7.31270977,1.21720156 7.31213398,1.21691367 7.31184609,1.21720156 C7.30752773,1.2192168 7.30407305,1.22123203 7.2994668,1.22324727 C7.29917891,1.22324727 7.29889102,1.22324727 7.29889102,1.22353516 C7.29572422,1.22497461 7.29342109,1.22612617 7.29054219,1.22756563 C7.2902543,1.22785352 7.28996641,1.22785352 7.28996641,1.22785352 C7.28823906,1.22814141 7.2870875,1.22900508 7.28564805,1.22986875 C7.28536016,1.22986875 7.28507227,1.22986875 7.28449648,1.23015664 C7.28219336,1.23188398 7.27960234,1.23303555 7.27758711,1.23418711 C7.27701133,1.234475 7.27643555,1.234475 7.27585977,1.23505078 C7.27154141,1.23677813 7.26779883,1.23879336 7.26348047,1.24080859 C7.26319258,1.24080859 7.26290469,1.24080859 7.2626168,1.24138438 C7.25829844,1.24311172 7.25426797,1.24570273 7.24994961,1.24743008 C7.24994961,1.24743008 7.24966172,1.24771797 7.24937383,1.24771797 C7.24678281,1.24886953 7.24361602,1.25030898 7.24131289,1.25174844 C7.241025,1.25174844 7.24073711,1.25203633 7.24044922,1.25203633 C7.23584297,1.25405156 7.23238828,1.25577891 7.22778203,1.25836992 C7.22749414,1.25865781 7.22691836,1.25865781 7.22691836,1.2589457 C7.2226,1.26067305 7.21885742,1.26268828 7.21453906,1.26470352 C7.21367539,1.2652793 7.21367539,1.26556719 7.21309961,1.26556719 C7.21079648,1.26671875 7.20820547,1.26787031 7.20647813,1.26902188 C7.20590234,1.26930977 7.20532656,1.26930977 7.20475078,1.26988555 C7.20302344,1.27017344 7.20244766,1.27074922 7.20043242,1.271325 C7.20014453,1.27190078 7.20014453,1.27190078 7.19985664,1.27190078 C7.19755352,1.27305234 7.19467461,1.2744918 7.19265938,1.27564336 C7.19208359,1.27564336 7.19150781,1.27593125 7.19121992,1.27650703 C7.18718945,1.27852227 7.18287109,1.28082539 7.17912852,1.28255273 C7.17855273,1.28255273 7.17797695,1.28284063 7.17740117,1.28341641 C7.17509805,1.28456797 7.17308281,1.28543164 7.17135547,1.2865832 C7.1704918,1.28715898 7.17020391,1.28744688 7.16962813,1.28744688 C7.16790078,1.28802266 7.16703711,1.28831055 7.16559766,1.28917422 C7.16502188,1.28946211 7.16444609,1.28946211 7.1641582,1.28975 C7.16185508,1.29090156 7.15926406,1.29234102 7.15753672,1.29349258 C7.15667305,1.29406836 7.15609727,1.29406836 7.15552148,1.29406836 C7.15177891,1.29608359 7.14746055,1.29838672 7.14343008,1.30011406 C7.1428543,1.30068984 7.14199063,1.30068984 7.14170273,1.30097773 C7.13939961,1.3021293 7.13738438,1.30299297 7.13565703,1.30414453 C7.13508125,1.30443242 7.13421758,1.30472031 7.1336418,1.3050082 C7.13191445,1.30558398 7.13133867,1.30615977 7.12989922,1.30673555 C7.12932344,1.30702344 7.12845977,1.30731133 7.12788398,1.30759922 C7.12558086,1.30903867 7.12414141,1.30990234 7.12183828,1.31105391 C7.1212625,1.3113418 7.12039883,1.31162969 7.11982305,1.31220547 C7.11867148,1.31306914 7.11751992,1.31364492 7.11636836,1.3142207 C7.1152168,1.31479648 7.11435313,1.31537227 7.11348945,1.31566016 C7.11147422,1.31652383 7.10945898,1.31709961 7.10801953,1.31796328 C7.10773164,1.31825117 7.10658008,1.31853906 7.1060043,1.31911484 C7.10398906,1.32026641 7.10254961,1.32113008 7.10053438,1.32199375 C7.0996707,1.32256953 7.09851914,1.32285742 7.09765547,1.32314531 C7.09650391,1.32400898 7.09564023,1.32429688 7.09420078,1.32487266 C7.09333711,1.32544844 7.09247344,1.32573633 7.09160977,1.32631211 C7.0904582,1.32487266 7.08873086,1.32573633 7.0875793,1.3266 C7.08671563,1.32688789 7.08585195,1.32746367 7.08470039,1.32775156 C7.08354883,1.32861523 7.08239727,1.32890313 7.08153359,1.32947891 C7.08038203,1.33005469 7.07923047,1.33063047 7.07807891,1.33149414 C7.07635156,1.33235781 7.07462422,1.33293359 7.07318477,1.33408516 C7.0720332,1.33466094 7.07145742,1.33523672 7.07030586,1.33552461 C7.0691543,1.33638828 7.06829063,1.33667617 7.06713906,1.33696406 C7.06541172,1.33753984 7.06368438,1.33869141 7.06195703,1.33955508 C7.06080547,1.33984297 7.06022969,1.34013086 7.05936602,1.34070664 C7.05821445,1.34128242 7.056775,1.34214609 7.05562344,1.34243398 C7.05447188,1.34329766 7.05303242,1.34387344 7.05188086,1.34444922 C7.05044141,1.345025 7.04957773,1.34617656 7.04813828,1.34675234 C7.04727461,1.34704023 7.04583516,1.34761602 7.04497148,1.3481918 C7.04381992,1.34847969 7.04238047,1.34934336 7.04065313,1.35020703 C7.03950156,1.35049492 7.03835,1.35135859 7.03748633,1.35164648 C7.03662266,1.35251016 7.0351832,1.35308594 7.03403164,1.35394961 C7.03288008,1.3542375 7.03259219,1.35452539 7.03144063,1.35538906 C7.02971328,1.35596484 7.02769805,1.35654063 7.02625859,1.35769219 C7.02510703,1.35798008 7.02481914,1.35826797 7.02366758,1.35884375 C7.02194023,1.35970742 7.02078867,1.35999531 7.01963711,1.36114688 C7.01848555,1.36143477 7.01704609,1.36229844 7.01618242,1.36287422 C7.01474297,1.36373789 7.01330352,1.36402578 7.01186406,1.36488945 C7.01100039,1.36517734 7.01013672,1.36604102 7.00898516,1.36632891 C7.0075457,1.36748047 7.00581836,1.36805625 7.00437891,1.36891992 C7.00322734,1.36978359 7.00322734,1.36978359 7.00178789,1.37035938 C7.00034844,1.37122305 6.99919688,1.37151094 6.99775742,1.37208672 C6.99660586,1.3726625 6.99660586,1.3726625 6.9954543,1.37323828 C6.99372695,1.37467773 6.99171172,1.37525352 6.98969648,1.37611719 C6.98940859,1.37669297 6.98854492,1.37698086 6.98796914,1.37726875 C6.9862418,1.37813242 6.98451445,1.37899609 6.98336289,1.37957188 C6.98249922,1.37985977 6.98249922,1.37985977 6.98192344,1.38043555 C6.9799082,1.381875 6.97789297,1.38245078 6.97587773,1.38360234 C6.97760508,1.38273867 6.9770293,1.38302656 6.97616563,1.38331445 C6.97443828,1.38417813 6.97242305,1.38532969 6.97040781,1.38648125 C6.97040781,1.38648125 6.96983203,1.38705703 6.96925625,1.38705703 C6.96752891,1.38820859 6.96580156,1.38936016 6.96436211,1.38993594 C6.96349844,1.39051172 6.96292266,1.39079961 6.96205898,1.3910875 C6.96004375,1.39195117 6.95831641,1.39281484 6.95658906,1.39396641 C6.95572539,1.3942543 6.95572539,1.3942543 6.95486172,1.3942543 C6.95342227,1.39540586 6.95169492,1.39626953 6.94996758,1.39684531 C6.9493918,1.39742109 6.9493918,1.39770898 6.94852813,1.39799688 C6.94651289,1.39886055 6.94420977,1.40001211 6.94248242,1.40116367 C6.94190664,1.40116367 6.94104297,1.40145156 6.94046719,1.40173945 C6.93873984,1.40289102 6.93643672,1.40404258 6.93470938,1.40519414 C6.9338457,1.40548203 6.93413359,1.40519414 6.93326992,1.40548203 C6.93154258,1.4063457 6.92981523,1.40720938 6.9278,1.40836094 C6.9278,1.40864883 6.92693633,1.40893672 6.92664844,1.40893672 C6.92434531,1.41037617 6.92233008,1.41123984 6.92060273,1.41239141 C6.92031484,1.41239141 6.92002695,1.41239141 6.91945117,1.4126793 C6.91772383,1.41411875 6.91599648,1.41498242 6.91398125,1.41613398 C6.91369336,1.41613398 6.91311758,1.41642188 6.9125418,1.41642188 C6.91081445,1.41786133 6.90851133,1.418725 6.90678398,1.41987656 C6.90649609,1.41987656 6.90563242,1.42016445 6.90505664,1.42074023 C6.9033293,1.42131602 6.90188984,1.42246758 6.89987461,1.42361914 C6.89958672,1.42361914 6.89958672,1.42361914 6.89929883,1.42390703 C6.8969957,1.42534648 6.89526836,1.42621016 6.89296523,1.42736172 C6.89238945,1.42764961 6.89181367,1.4279375 6.89152578,1.4279375 C6.88951055,1.42908906 6.88720742,1.42966484 6.88548008,1.43081641 C6.88519219,1.4311043 6.88548008,1.43081641 6.88519219,1.4311043 C6.88288906,1.43225586 6.88087383,1.43340742 6.87885859,1.43455898 C6.87885859,1.43484688 6.8785707,1.43484688 6.87799492,1.43513477 C6.87597969,1.43599844 6.87396445,1.43715 6.87194922,1.43830156 C6.87137344,1.43887734 6.87137344,1.43887734 6.87137344,1.43945313 C6.86907031,1.4403168 6.86676719,1.44146836 6.86503984,1.44261992 L6.86475195,1.44261992 C6.86244883,1.44377148 6.86043359,1.44492305 6.85813047,1.4463625 L6.85755469,1.44693828 C6.85323633,1.44924141 6.84863008,1.45125664 6.84431172,1.45355977 L6.84402383,1.45384766 C6.83711445,1.45730234 6.83020508,1.46075703 6.82358359,1.46449961 L6.8232957,1.46507539 C6.55440586,1.60815703 6.29242539,1.75987539 6.03649063,1.92023047 L6.64940977,2.89445234 Z M3.88997812,5.29574805 C4.28352461,4.82821367 4.71651211,4.38802891 5.17656133,3.98757305 L4.42056055,3.11871914 C3.91243359,3.56034336 3.44144453,4.04054492 3.00903281,4.5541418 L3.88997812,5.29574805 Z M1.99364258,8.42483125 C2.22539453,7.86056562 2.50349687,7.30983086 2.81988867,6.78702148 L1.83530273,6.19022422 C1.83242383,6.19511836 1.82868125,6.20087617 1.82522656,6.2060582 C1.82551445,6.20692187 1.82493867,6.20720977 1.82465078,6.20778555 C1.82349922,6.20980078 1.82205977,6.2123918 1.8209082,6.21440703 C1.82062031,6.21469492 1.82004453,6.2152707 1.81975664,6.21555859 C1.81946875,6.21671016 1.81831719,6.21814961 1.81774141,6.21901328 C1.81716562,6.22016484 1.81687773,6.22102852 1.81658984,6.22218008 C1.81543828,6.22333164 1.81457461,6.22505898 1.81371094,6.22649844 C1.81284727,6.22736211 1.81227148,6.22822578 1.81140781,6.22937734 C1.81083203,6.23024102 1.81025625,6.23110469 1.81025625,6.23225625 C1.80910469,6.2336957 1.80824102,6.23513516 1.80708945,6.2368625 C1.80651367,6.23772617 1.80622578,6.23858984 1.80565,6.23974141 C1.80478633,6.24060508 1.80421055,6.24175664 1.80363477,6.24319609 C1.80305898,6.24377187 1.80219531,6.24521133 1.80133164,6.24636289 C1.80075586,6.24780234 1.79989219,6.24895391 1.79902852,6.25039336 C1.79845273,6.25125703 1.79816484,6.2521207 1.79758906,6.25269648 C1.79672539,6.25471172 1.79528594,6.25615117 1.79442227,6.25816641 C1.79384648,6.25874219 1.79355859,6.25903008 1.79355859,6.25960586 C1.79240703,6.2613332 1.79183125,6.26277266 1.79096758,6.26392422 C1.79067969,6.26507578 1.7903918,6.26536367 1.78981602,6.26593945 C1.78866445,6.2676668 1.787225,6.26968203 1.78607344,6.27140937 C1.78607344,6.27169727 1.78520977,6.27313672 1.78492188,6.27342461 C1.78377031,6.27486406 1.78290664,6.2768793 1.78204297,6.27831875 C1.78290664,6.27716719 1.78290664,6.27745508 1.78261875,6.27745508 C1.78146719,6.27947031 1.78031563,6.28148555 1.77945195,6.28350078 C1.77916406,6.28407656 1.77887617,6.28436445 1.77830039,6.28522812 C1.77714883,6.28695547 1.77657305,6.28925859 1.77542148,6.29127383 C1.77513359,6.29156172 1.7748457,6.29156172 1.7748457,6.29184961 C1.77340625,6.29386484 1.77225469,6.29559219 1.77110313,6.29760742 C1.77052734,6.29847109 1.77081523,6.2981832 1.77052734,6.29904687 C1.76908789,6.30077422 1.76793633,6.30278945 1.76678477,6.3045168 C1.76649688,6.30480469 1.76620898,6.30509258 1.76620898,6.30566836 C1.76476953,6.30768359 1.76361797,6.30969883 1.76246641,6.31171406 C1.76102695,6.31401719 1.75987539,6.31603242 1.75843594,6.31804766 C1.75843594,6.31862344 1.75843594,6.31862344 1.75814805,6.31891133 C1.75699648,6.32092656 1.75555703,6.32322969 1.75411758,6.32524492 L1.75382969,6.32524492 C1.75152656,6.32985117 1.74893555,6.33388164 1.74634453,6.33877578 L1.74605664,6.33906367 C1.43571055,6.86705508 1.16163867,7.41750195 0.927583594,7.98781328 L1.99364258,8.42483125 Z M1.14868359,11.9808562 C1.19503398,11.3725434 1.29032578,10.7633668 1.43139219,10.1700242 L0.310921875,9.90372539 C0.246722266,10.1729031 0.191159375,10.4452477 0.144808984,10.7201832 C0.144521094,10.7201832 0.144521094,10.7201832 0.144521094,10.7201832 C0.143657422,10.7253652 0.14279375,10.7299715 0.141930078,10.7351535 C0.141930078,10.7351535 0.141930078,10.7351535 0.141930078,10.7354414 C0.141642188,10.7386082 0.140778516,10.7411992 0.140202734,10.7446539 C0.140202734,10.7449418 0.140202734,10.7452297 0.140202734,10.7452297 C0.139339063,10.7498359 0.138763281,10.7541543 0.137899609,10.7590484 C0.137611719,10.7593363 0.137611719,10.7596242 0.137323828,10.7599121 C0.136460156,10.7650941 0.135884375,10.7688367 0.135308594,10.7740187 C0.135308594,10.7743066 0.135020703,10.7748824 0.135308594,10.7751703 C0.135020703,10.7780492 0.134444922,10.781216 0.133869141,10.7840949 C0.133869141,10.7840949 0.133869141,10.7843828 0.13358125,10.7843828 C0.133293359,10.7861102 0.133005469,10.7872617 0.132717578,10.7889891 C0.132429688,10.789277 0.132717578,10.7895648 0.132717578,10.7898527 C0.132429688,10.7927316 0.131566016,10.7958984 0.130990234,10.7982016 C0.130990234,10.7984895 0.130990234,10.7990652 0.130990234,10.7993531 C0.130414453,10.8010805 0.130414453,10.802232 0.130126563,10.8039594 C0.130414453,10.8045352 0.130414453,10.804823 0.130126563,10.8051109 C0.129550781,10.807702 0.128975,10.8105809 0.128399219,10.812884 C0.128687109,10.8134598 0.128399219,10.8143234 0.128399219,10.8148992 C0.127823438,10.8189297 0.127247656,10.8238238 0.126383984,10.8281422 C0.126671875,10.828718 0.126096094,10.8295816 0.125520313,10.8301574 C0.125232422,10.8321727 0.125232422,10.8347637 0.124944531,10.8367789 C0.124656641,10.8376426 0.124656641,10.8385062 0.12436875,10.8393699 C0.12436875,10.8405215 0.124080859,10.841673 0.123792969,10.8431125 C0.123505078,10.8439762 0.123217188,10.8451277 0.123505078,10.8462793 C0.123217188,10.8482945 0.122929297,10.8500219 0.122353516,10.8520371 C0.122353516,10.8529008 0.122065625,10.8537645 0.121777734,10.8546281 C0.121777734,10.8557797 0.121489844,10.857507 0.121201953,10.8586586 C0.121201953,10.8598102 0.121201953,10.8609617 0.120914063,10.8615375 C0.120626172,10.8635527 0.120050391,10.8649922 0.1197625,10.8672953 C0.119474609,10.8684469 0.119474609,10.8693105 0.119474609,10.8701742 C0.119186719,10.8719016 0.118610938,10.873341 0.118610938,10.8750684 C0.118323047,10.8762199 0.118323047,10.8779473 0.118035156,10.8790988 C0.118035156,10.8805383 0.117459375,10.881402 0.117459375,10.8828414 C0.117171484,10.8837051 0.117171484,10.8845687 0.116883594,10.8857203 C0.117171484,10.8874477 0.116595703,10.8897508 0.116595703,10.8914781 C0.116307813,10.8923418 0.116019922,10.8934934 0.116019922,10.894357 C0.115732031,10.8952207 0.115444141,10.896948 0.114868359,10.8978117 C0.114868359,10.8995391 0.114292578,10.9009785 0.114292578,10.902418 C0.114004688,10.9035695 0.113716797,10.9055848 0.113716797,10.9067363 C0.113428906,10.9078879 0.113428906,10.9090395 0.112853125,10.9104789 C0.112853125,10.9119184 0.112565234,10.9124941 0.112565234,10.9136457 C0.111989453,10.9156609 0.112277344,10.9173883 0.111989453,10.9194035 C0.111701563,10.9202672 0.111413672,10.9214187 0.111125781,10.9225703 C0.111125781,10.9240098 0.11055,10.9254492 0.11055,10.9268887 C0.110262109,10.9277523 0.110262109,10.928616 0.110262109,10.9294797 C0.11055,10.931207 0.110262109,10.9332223 0.109398438,10.9355254 C0.109398438,10.9363891 0.109110547,10.9375406 0.108822656,10.9381164 C0.108534766,10.9398437 0.108534766,10.9412832 0.107958984,10.9427227 C0.107958984,10.9435863 0.107671094,10.9450258 0.107958984,10.9458895 C0.107383203,10.9476168 0.107095313,10.9493441 0.107095313,10.9510715 C0.106807422,10.9516473 0.106807422,10.9530867 0.106519531,10.9536625 C0.107383203,10.9530867 0.107383203,10.955102 0.106807422,10.9568293 C0.106807422,10.957693 0.106807422,10.9579809 0.106519531,10.9588445 C0.106519531,10.9605719 0.106231641,10.9620113 0.105655859,10.9634508 C0.105655859,10.9646023 0.105367969,10.965466 0.105080078,10.9663297 C0.104504297,10.968057 0.104504297,10.9700723 0.104216406,10.9720875 C0.104216406,10.9729512 0.103928516,10.973527 0.103928516,10.9746785 C0.103640625,10.976118 0.103352734,10.9778453 0.103640625,10.9792848 C0.103352734,10.9801484 0.103064844,10.9807242 0.103064844,10.9815879 C0.102776953,10.9836031 0.102776953,10.9856184 0.102201172,10.9876336 C0.102201172,10.9884973 0.101913281,10.989073 0.101625391,10.9899367 C0.101625391,10.9916641 0.1013375,10.9936793 0.100761719,10.9954066 C0.101049609,10.9962703 0.101049609,10.9965582 0.100761719,10.9977098 C0.100473828,10.9994371 0.100473828,11.0014523 0.0998980469,11.0034676 C0.0996101562,11.0040434 0.0993222656,11.0046191 0.0996101562,11.0054828 C0.099034375,11.007498 0.0987464844,11.0098012 0.0984585937,11.0118164 C0.0984585937,11.0126801 0.0981707031,11.0132559 0.0981707031,11.0141195 C0.0978828125,11.0158469 0.0973070312,11.0172863 0.0973070312,11.0190137 C0.0970191406,11.0198773 0.0970191406,11.020741 0.0970191406,11.0213168 C0.09673125,11.023332 0.09673125,11.0256352 0.0964433594,11.0273625 C0.0961554688,11.0276504 0.0958675781,11.0282262 0.0958675781,11.028802 C0.0955796875,11.0308172 0.0952917969,11.0328324 0.0952917969,11.0345598 C0.0950039063,11.0351355 0.0950039063,11.0354234 0.0947160156,11.0357113 C0.094428125,11.0380145 0.0941402344,11.0400297 0.0938523438,11.0423328 C0.0935644531,11.0431965 0.0935644531,11.0431965 0.0935644531,11.0440602 C0.0932765625,11.0463633 0.0929886719,11.0486664 0.0929886719,11.0503937 L0.0929886719,11.0509695 C0.0924128906,11.0532727 0.092125,11.0555758 0.0915492188,11.0573031 C0.0915492188,11.0578789 0.0912613281,11.0587426 0.0912613281,11.0590305 C0.0909734375,11.0613336 0.0906855469,11.0636367 0.0906855469,11.0659398 C0.0903976563,11.0662277 0.0903976563,11.0665156 0.0903976563,11.0670914 C0.0901097656,11.0691066 0.089821875,11.0711219 0.0892460938,11.0731371 C0.0889582031,11.073425 0.0886703125,11.0740008 0.0886703125,11.0745766 C0.0883824219,11.0768797 0.0883824219,11.0794707 0.0878066406,11.081198 C0.0880945313,11.0817738 0.0878066406,11.0820617 0.0878066406,11.0823496 C0.0878066406,11.0846527 0.08751875,11.0869559 0.0872308594,11.089259 C0.0869429688,11.0898348 0.0872308594,11.089259 0.0869429688,11.0895469 C0.0869429688,11.0921379 0.0866550781,11.094441 0.0857914063,11.0964562 C0.0857914063,11.0967441 0.0857914063,11.0973199 0.0855035156,11.0976078 C0.085215625,11.1001988 0.085215625,11.1027898 0.0849277344,11.1048051 C0.0849277344,11.105093 0.0849277344,11.1048051 0.0849277344,11.105093 C0.0843519531,11.1073961 0.0840640625,11.1099871 0.0834882813,11.1122902 C0.0837761719,11.112866 0.0834882813,11.112866 0.0834882813,11.1134418 C0.0832003906,11.115457 0.0829125,11.1177602 0.0823367188,11.1200633 L0.0823367188,11.1206391 C0.0820488281,11.1232301 0.0814730469,11.1255332 0.0811851563,11.1275484 L0.0811851563,11.1281242 C0.0808972656,11.1304273 0.080609375,11.1330184 0.080609375,11.1353215 C0.080609375,11.1356094 0.080609375,11.1361852 0.080609375,11.136473 C0.0794578125,11.1413672 0.0788820313,11.1462613 0.07830625,11.1508676 L0.0785941406,11.1525949 C0.0777304688,11.1580648 0.0774425781,11.1626711 0.0762910156,11.1675652 C0.0765789063,11.1678531 0.0765789063,11.1678531 0.0765789063,11.168141 C0.076003125,11.1710199 0.0757152344,11.173323 0.0754273438,11.1756262 L0.0754273438,11.1759141 C0.0748515625,11.1785051 0.0745636719,11.1810961 0.0742757813,11.1833992 L0.0742757813,11.1836871 C0.0734121094,11.1862781 0.0737,11.1885812 0.0734121094,11.1908844 L0.0731242188,11.1911723 C0.0728363281,11.1966422 0.0722605469,11.2012484 0.0716847656,11.2064305 L0.071396875,11.2067184 C0.0688058594,11.2251434 0.066790625,11.2435684 0.0644875,11.2614176 L0.0641996094,11.2622812 C0.0440472656,11.4237879 0.0261980469,11.586734 0.0118035156,11.7502559 L0.0118035156,11.7505437 C0.0112277344,11.7557258 0.0112277344,11.7609078 0.0103640625,11.7663777 C0.00978828125,11.7718477 0.00950039062,11.7770297 0.0092125,11.7824996 C0.00834882812,11.7902727 0.00748515625,11.7983336 0.00719726563,11.8061066 C0.006909375,11.8063945 0.006909375,11.8055309 0.006909375,11.8061066 C0.00633359375,11.8112887 0.00633359375,11.8161828 0.0057578125,11.8213648 L0.0057578125,11.8216527 C0.00518203125,11.8268348 0.00489414063,11.8320168 0.00403046875,11.8371988 L0.00403046875,11.8374867 C0.00374257812,11.8400777 0.00374257812,11.8426687 0.00374257812,11.8449719 L0.00374257812,11.8452598 C0.0034546875,11.8501539 0.00259101563,11.855048 0.00259101563,11.8602301 C0.00259101563,11.8608059 0.00259101563,11.8608059 0.00259101563,11.8610937 C0.002303125,11.8662758 0.00201523438,11.8711699 0.0011515625,11.8760641 C0.0011515625,11.8766398 0.0011515625,11.8766398 0.0011515625,11.8769277 C0.0011515625,11.8798066 0.000863671875,11.8821098 0.000863671875,11.8844129 L0.000863671875,11.8849887 C0.00057578125,11.8872918 0.00057578125,11.889307 0.000287890625,11.8913223 C0.000287890625,11.891898 0.000287890625,11.891898 0,11.8921859 L1.14868359,11.9808562 Z M0.313800781,15.8953051 L1.43455898,15.6301578 C1.3358125,15.2144437 1.25952148,14.7866383 1.20568594,14.3599844 C1.18323047,14.1791891 1.16480547,13.9960906 1.15041094,13.8152953 L0.00259101562,13.905693 C0.00546992187,13.9393762 0.00834882812,13.9730594 0.0112277344,14.0076062 L0.0112277344,14.008182 C0.011515625,14.0093336 0.0112277344,14.010773 0.011515625,14.0119246 C0.011515625,14.0122125 0.011515625,14.0130762 0.011515625,14.0133641 C0.011515625,14.0145156 0.011515625,14.0153793 0.0118035156,14.0159551 C0.0120914063,14.0168187 0.0120914063,14.0176824 0.0123792969,14.0185461 C0.0120914062,14.0194098 0.0120914062,14.0199855 0.0123792969,14.0208492 C0.0120914062,14.0217129 0.0123792969,14.0228645 0.0123792969,14.0237281 C0.0123792969,14.0245918 0.0123792969,14.0251676 0.0126671875,14.0257434 C0.0126671875,14.0271828 0.0129550781,14.0283344 0.0126671875,14.0297738 C0.0129550781,14.0300617 0.0129550781,14.0303496 0.0132429688,14.0306375 C0.0233191406,14.1498242 0.0359863281,14.268723 0.0498050781,14.3881977 C0.0500929688,14.3881977 0.0500929688,14.3881977 0.0500929688,14.3881977 C0.05066875,14.3988496 0.0518203125,14.4089258 0.0532597656,14.4192898 C0.0532597656,14.4192898 0.0532597656,14.4195777 0.0535476563,14.4198656 C0.0538355469,14.421593 0.0538355469,14.4227445 0.0541234375,14.4244719 C0.0541234375,14.4247598 0.0541234375,14.4250477 0.0541234375,14.4253355 C0.0546992188,14.4270629 0.0546992188,14.4279266 0.0549871094,14.4296539 C0.0549871094,14.4299418 0.0549871094,14.4302297 0.0549871094,14.4305176 C0.055275,14.4322449 0.055275,14.4328207 0.055275,14.4348359 C0.055275,14.4351238 0.055275,14.4354117 0.0555628906,14.4356996 C0.055275,14.4371391 0.0555628906,14.4385785 0.0555628906,14.440018 C0.0555628906,14.4405937 0.0558507813,14.4408816 0.0561386719,14.4411695 C0.0561386719,14.4431848 0.0561386719,14.4437605 0.0564265625,14.4454879 C0.0564265625,14.4457758 0.0564265625,14.4460637 0.0564265625,14.4463516 C0.0564265625,14.447791 0.0567144531,14.4492305 0.0570023438,14.4506699 C0.0570023438,14.4509578 0.0570023438,14.4512457 0.0570023438,14.4518215 C0.0578660156,14.4549883 0.0578660156,14.4578672 0.0581539063,14.4616098 C0.0584417969,14.4618977 0.0584417969,14.4621855 0.0584417969,14.4627613 C0.0584417969,14.4639129 0.0587296875,14.4653523 0.0590175781,14.4667918 C0.0590175781,14.4670797 0.0590175781,14.4676555 0.0590175781,14.4682312 C0.0595933594,14.4690949 0.0595933594,14.4708223 0.05988125,14.4716859 C0.0595933594,14.4722617 0.05988125,14.4731254 0.05988125,14.4737012 C0.0601691406,14.4745648 0.0601691406,14.4757164 0.0604570313,14.4765801 C0.0604570313,14.4774437 0.0604570313,14.4780195 0.0604570313,14.4785953 C0.0604570313,14.4797469 0.0604570313,14.4808984 0.0607449219,14.4817621 C0.0607449219,14.4823379 0.0610328125,14.4832016 0.0613207031,14.4837773 C0.0613207031,14.484641 0.0616085938,14.4860805 0.0616085938,14.4869441 C0.0616085938,14.4875199 0.0618964844,14.4883836 0.0618964844,14.4889594 C0.0618964844,14.489823 0.062184375,14.4912625 0.062184375,14.4921262 C0.062184375,14.492702 0.0624722656,14.4932777 0.0624722656,14.4941414 C0.0624722656,14.495293 0.0627601563,14.4961566 0.0630480469,14.4973082 C0.0633359375,14.497884 0.0633359375,14.4984598 0.0633359375,14.4990355 C0.0636238281,14.5007629 0.0633359375,14.5024902 0.0636238281,14.5042176 C0.0639117188,14.5059449 0.0639117188,14.5079602 0.0639117188,14.5096875 C0.0641996094,14.5105512 0.0644875,14.5108391 0.0644875,14.5117027 C0.0647753906,14.5128543 0.0647753906,14.5140059 0.0650632813,14.5151574 C0.0650632813,14.5160211 0.0650632813,14.516309 0.0653511719,14.5174605 C0.0653511719,14.5183242 0.0656390625,14.5194758 0.0656390625,14.5206273 C0.0656390625,14.521491 0.0659269531,14.5220668 0.0659269531,14.5229305 C0.0659269531,14.524082 0.0662148438,14.5252336 0.0665027344,14.5263852 C0.0665027344,14.526673 0.066790625,14.5281125 0.066790625,14.5286883 C0.0670785156,14.529552 0.0670785156,14.5307035 0.0673664063,14.5318551 C0.0673664063,14.532143 0.0673664063,14.5335824 0.0676542969,14.5341582 C0.0676542969,14.5353098 0.0676542969,14.5361734 0.0679421875,14.537325 C0.0679421875,14.5381887 0.0682300781,14.5387645 0.0685179688,14.5396281 C0.0685179688,14.5407797 0.0688058594,14.5416434 0.0688058594,14.5427949 C0.0685179688,14.5436586 0.0688058594,14.5445223 0.0688058594,14.5453859 C0.06909375,14.5462496 0.06909375,14.5471133 0.0688058594,14.5482648 C0.06909375,14.5491285 0.06909375,14.5499922 0.06909375,14.5508559 C0.0693816406,14.5520074 0.0693816406,14.5528711 0.0699574219,14.5537348 C0.0699574219,14.5545984 0.0699574219,14.5554621 0.0702453125,14.5563258 C0.0702453125,14.5571895 0.0705332031,14.558341 0.0705332031,14.5592047 C0.0705332031,14.5600684 0.0708210938,14.560932 0.0708210938,14.5617957 C0.0708210938,14.5629473 0.0711089844,14.563523 0.0711089844,14.5646746 C0.071396875,14.5658262 0.071396875,14.5658262 0.0719726563,14.5675535 C0.0722605469,14.5684172 0.0722605469,14.5692809 0.0719726563,14.5701445 C0.0722605469,14.5710082 0.0722605469,14.5721598 0.0725484375,14.5730234 C0.0725484375,14.5738871 0.0725484375,14.5747508 0.0728363281,14.5756145 C0.0728363281,14.5764781 0.0731242188,14.5776297 0.0731242188,14.5784934 C0.0728363281,14.579357 0.0734121094,14.5805086 0.0737,14.5813723 C0.0739878906,14.5822359 0.0739878906,14.5830996 0.0739878906,14.5839633 C0.0742757813,14.5856906 0.0745636719,14.587418 0.0745636719,14.5894332 C0.0748515625,14.5902969 0.0748515625,14.5911605 0.0748515625,14.5917363 C0.0751394531,14.5926 0.0748515625,14.5937516 0.0751394531,14.5946152 C0.0754273438,14.5954789 0.0754273438,14.5966305 0.0757152344,14.5974941 C0.0757152344,14.5983578 0.076003125,14.5995094 0.076003125,14.600373 C0.076003125,14.6012367 0.0762910156,14.6021004 0.0762910156,14.6029641 C0.0762910156,14.6041156 0.0765789063,14.6049793 0.0765789063,14.605843 C0.0768667969,14.6069945 0.0768667969,14.6078582 0.0768667969,14.6087219 C0.0774425781,14.6095855 0.0774425781,14.6107371 0.0777304688,14.6116008 C0.0780183594,14.6121766 0.0780183594,14.6133281 0.07830625,14.6141918 C0.0780183594,14.6150555 0.0780183594,14.6159191 0.0780183594,14.6167828 C0.0780183594,14.6176465 0.07830625,14.618798 0.07830625,14.6196617 C0.07830625,14.6205254 0.0785941406,14.6213891 0.0785941406,14.6222527 C0.0788820313,14.6231164 0.0791699219,14.624268 0.0791699219,14.6251316 C0.0785941406,14.6211012 0.0785941406,14.6219648 0.0785941406,14.6228285 C0.0788820313,14.6236922 0.0788820313,14.6245559 0.0791699219,14.6254195 C0.0791699219,14.6265711 0.0791699219,14.6274348 0.0797457031,14.6282984 C0.0797457031,14.6291621 0.0800335938,14.6303137 0.0800335938,14.6311773 C0.0803214844,14.632041 0.080609375,14.6329047 0.0803214844,14.6337684 C0.0803214844,14.634632 0.080609375,14.6360715 0.080609375,14.6369352 C0.080609375,14.6375109 0.0811851563,14.6383746 0.0811851563,14.6389504 C0.0814730469,14.640102 0.0814730469,14.6406777 0.0814730469,14.6418293 C0.0817609375,14.642693 0.0817609375,14.6435566 0.0817609375,14.6441324 C0.0820488281,14.6455719 0.0820488281,14.6461477 0.0823367188,14.6472992 C0.0823367188,14.6481629 0.0823367188,14.6490266 0.0826246094,14.6498902 C0.0826246094,14.6510418 0.0826246094,14.6516176 0.0829125,14.653057 C0.0829125,14.6536328 0.0832003906,14.6542086 0.0832003906,14.6550723 C0.0829125,14.6562238 0.0832003906,14.6570875 0.0832003906,14.6582391 C0.0832003906,14.6588148 0.0834882813,14.6591027 0.0834882813,14.6596785 C0.0846398438,14.6639969 0.085215625,14.668891 0.0857914063,14.6732094 C0.0860792969,14.6734973 0.0860792969,14.6737852 0.0860792969,14.674073 C0.0860792969,14.6752246 0.0863671875,14.676952 0.0866550781,14.6783914 C0.0866550781,14.6786793 0.0863671875,14.6792551 0.0863671875,14.679543 C0.0866550781,14.6809824 0.0866550781,14.682134 0.0869429688,14.6835734 C0.0869429688,14.6838613 0.0869429688,14.684725 0.0872308594,14.6850129 C0.08751875,14.6864523 0.0878066406,14.687316 0.0880945313,14.6884676 C0.0880945313,14.6890434 0.0880945313,14.689907 0.0883824219,14.6904828 C0.0883824219,14.6919223 0.0886703125,14.6927859 0.0886703125,14.6942254 C0.0886703125,14.6948012 0.0889582031,14.695377 0.0889582031,14.6959527 C0.0889582031,14.6971043 0.0892460938,14.6982559 0.0892460938,14.6994074 C0.0895339844,14.7002711 0.0895339844,14.7008469 0.0892460938,14.7014227 C0.089821875,14.7022863 0.089821875,14.7040137 0.0903976563,14.7048773 C0.0903976563,14.7054531 0.0903976563,14.7063168 0.0906855469,14.7066047 C0.0906855469,14.7074684 0.0909734375,14.7091957 0.0909734375,14.7100594 C0.0909734375,14.7106352 0.0909734375,14.7114988 0.0912613281,14.7120746 C0.0912613281,14.7135141 0.0915492188,14.7143777 0.0915492188,14.7158172 C0.0915492188,14.716393 0.0918371094,14.7169687 0.0918371094,14.7172566 C0.0918371094,14.7186961 0.092125,14.7198477 0.0924128906,14.7212871 C0.0924128906,14.7218629 0.0927007813,14.7221508 0.0927007813,14.7224387 C0.0929886719,14.7238781 0.0927007813,14.7253176 0.0929886719,14.726757 C0.0929886719,14.7270449 0.0929886719,14.7273328 0.0929886719,14.7276207 C0.0932765625,14.7290602 0.0935644531,14.7307875 0.0938523438,14.732227 C0.0938523438,14.7325148 0.0938523438,14.7328027 0.0938523438,14.7330906 C0.0958675781,14.7428789 0.09673125,14.753243 0.0984585938,14.7630312 C0.0984585938,14.7630312 0.0984585938,14.7630312 0.0984585938,14.7633191 C0.0987464844,14.7650465 0.099034375,14.7664859 0.0993222656,14.7679254 C0.0993222656,14.7682133 0.0993222656,14.7682133 0.0996101563,14.7685012 C0.0993222656,14.7699406 0.0998980469,14.771668 0.0998980469,14.7728195 C0.100185938,14.7733953 0.100185938,14.7736832 0.100185938,14.7739711 C0.100473828,14.7759863 0.100473828,14.7765621 0.100761719,14.7782895 C0.100761719,14.7788652 0.100761719,14.7791531 0.100761719,14.779441 C0.101049609,14.7811684 0.1013375,14.7817441 0.101625391,14.7837594 C0.101625391,14.7840473 0.101625391,14.7843352 0.101913281,14.784623 C0.102201172,14.7866383 0.102201172,14.7872141 0.102489063,14.7889414 C0.102489063,14.7895172 0.102489063,14.7898051 0.102776953,14.790093 C0.102489063,14.7918203 0.102776953,14.792684 0.102776953,14.7944113 C0.103064844,14.7946992 0.103352734,14.7949871 0.103352734,14.7955629 C0.103352734,14.7970023 0.103640625,14.7984418 0.104216406,14.7998812 C0.104216406,14.8001691 0.104216406,14.800457 0.104216406,14.8007449 C0.104504297,14.8024723 0.104504297,14.8036238 0.104792188,14.8053512 C0.104792188,14.8053512 0.104792188,14.8056391 0.104792188,14.805927 C0.107958984,14.8263672 0.110837891,14.8468074 0.114004688,14.8669598 C0.114004688,14.8672477 0.114004688,14.8672477 0.114004688,14.8672477 C0.114292578,14.868975 0.114580469,14.8707023 0.114868359,14.8724297 C0.114868359,14.8724297 0.114868359,14.8724297 0.114868359,14.8727176 C0.11515625,14.8744449 0.115444141,14.8758844 0.115444141,14.8776117 C0.115732031,14.8778996 0.115732031,14.8778996 0.115732031,14.8778996 C0.135596484,15.0083141 0.157476172,15.137577 0.181658984,15.266552 C0.181658984,15.2668398 0.181658984,15.2668398 0.181658984,15.2668398 C0.182522656,15.2702945 0.183098438,15.2734613 0.183386328,15.276916 C0.183962109,15.2786434 0.18425,15.2803707 0.184537891,15.282098 C0.184825781,15.2838254 0.184825781,15.2855527 0.185113672,15.2869922 C0.185113672,15.2872801 0.185113672,15.2872801 0.185113672,15.287568 C0.187992578,15.3010988 0.190295703,15.3146297 0.192598828,15.3275848 C0.192598828,15.3278727 0.192598828,15.3281605 0.192886719,15.3284484 C0.193174609,15.3296 0.1934625,15.3313273 0.193750391,15.3327668 C0.193750391,15.3330547 0.194038281,15.3333426 0.194326172,15.3333426 C0.194326172,15.3350699 0.194614063,15.3359336 0.194901953,15.3379488 C0.195189844,15.3382367 0.195189844,15.3385246 0.195189844,15.3388125 C0.195189844,15.3399641 0.195765625,15.3416914 0.196053516,15.3431309 C0.196053516,15.3434187 0.196053516,15.3437066 0.195765625,15.3439945 C0.196053516,15.345434 0.196341406,15.3465855 0.196917188,15.348025 C0.196917188,15.3486008 0.196917188,15.3488887 0.196629297,15.3494645 C0.197205078,15.3503281 0.197492969,15.3526312 0.197492969,15.3534949 C0.197492969,15.3537828 0.197492969,15.3543586 0.197780859,15.3546465 C0.19806875,15.3555102 0.198356641,15.3578133 0.198356641,15.358677 C0.198644531,15.3592527 0.198644531,15.3595406 0.198932422,15.3601164 C0.199508203,15.3615559 0.199796094,15.3627074 0.200083984,15.363859 C0.200083984,15.3644348 0.200371875,15.3650105 0.200371875,15.3655863 C0.200659766,15.3667379 0.200947656,15.3678895 0.200947656,15.369041 C0.201235547,15.3699047 0.201235547,15.3704805 0.201235547,15.3710563 C0.201523438,15.3722078 0.201523438,15.3730715 0.201811328,15.3745109 C0.201811328,15.3750867 0.202099219,15.3756625 0.202387109,15.3765262 C0.202675,15.3776777 0.202675,15.3785414 0.202675,15.3799809 C0.202962891,15.3805566 0.202962891,15.3811324 0.203250781,15.3814203 C0.203250781,15.3825719 0.203538672,15.3840113 0.203826563,15.3851629 C0.203826563,15.3854508 0.203826563,15.3854508 0.203826563,15.3857387 C0.204114453,15.387466 0.204690234,15.3886176 0.204978125,15.3903449 C0.205266016,15.3909207 0.205266016,15.3914965 0.205266016,15.3917844 C0.205841797,15.3940875 0.205841797,15.3963906 0.206417578,15.398118 C0.206417578,15.3989816 0.206417578,15.3998453 0.206993359,15.400709 C0.206993359,15.4015727 0.206993359,15.4024363 0.207569141,15.4033 C0.207569141,15.4041637 0.208144922,15.4050273 0.208144922,15.4061789 C0.208144922,15.4070426 0.208144922,15.4073305 0.208432813,15.4081941 C0.208720703,15.4093457 0.209008594,15.4104973 0.209008594,15.4116488 C0.209008594,15.4122246 0.209584375,15.4130883 0.209584375,15.4133762 C0.209872266,15.4148156 0.209872266,15.4159672 0.210448047,15.4171188 C0.210735938,15.4176945 0.210448047,15.4188461 0.210448047,15.419134 C0.210735938,15.4199977 0.211023828,15.4211492 0.211311719,15.4223008 C0.211311719,15.4228766 0.211311719,15.4240281 0.211599609,15.4246039 C0.2118875,15.4257555 0.212175391,15.4266191 0.212175391,15.4277707 C0.212175391,15.4286344 0.212751172,15.4289223 0.212751172,15.4297859 C0.213039063,15.4309375 0.213326953,15.4320891 0.213614844,15.4332406 C0.213902734,15.4341043 0.213902734,15.4343922 0.213902734,15.4352559 C0.214190625,15.4364074 0.214478516,15.4372711 0.214478516,15.4384227 C0.214766406,15.4392863 0.214766406,15.4398621 0.214478516,15.4407258 C0.215054297,15.4418773 0.215054297,15.4430289 0.215342188,15.4444684 C0.215342188,15.4447563 0.215917969,15.445332 0.216205859,15.4459078 C0.216205859,15.4470594 0.21649375,15.4484988 0.216781641,15.4499383 C0.21649375,15.4505141 0.216781641,15.450802 0.216781641,15.4510898 C0.217069531,15.4528172 0.217357422,15.4542566 0.217645313,15.455984 L0.217933203,15.4562719 C0.218221094,15.4579992 0.218508984,15.4600145 0.219084766,15.4617418 L0.219084766,15.4620297 C0.247298047,15.6030961 0.279253906,15.7496324 0.313800781,15.8953051 Z M1.83386328,19.6105336 L2.81844922,19.0134484 C2.50205742,18.4915027 2.22481875,17.940768 1.99393047,17.3765023 L0.927871484,17.8123687 C0.928447266,17.8126566 0.927871484,17.8123687 0.928159375,17.8126566 C0.929023047,17.8149598 0.929598828,17.816975 0.9304625,17.8189902 C0.9304625,17.8192781 0.931038281,17.819566 0.931038281,17.8201418 C0.933341406,17.824748 0.93506875,17.8290664 0.937083984,17.8333848 C0.937083984,17.8339605 0.937371875,17.8345363 0.937659766,17.8348242 C0.938523438,17.8371273 0.939099219,17.8394305 0.940250781,17.8414457 C0.940250781,17.8417336 0.940250781,17.8417336 0.940250781,17.8423094 C0.941402344,17.8443246 0.941978125,17.8463398 0.942841797,17.8483551 L0.943417578,17.8489309 C0.94428125,17.851234 0.945144922,17.8535371 0.946008594,17.8555523 C0.946296484,17.8558402 0.946296484,17.8561281 0.946584375,17.8567039 C0.948599609,17.8610223 0.950902734,17.8653406 0.952630078,17.8702348 C0.952917969,17.8705227 0.952917969,17.8708105 0.952917969,17.8710984 C0.955221094,17.8762805 0.957236328,17.8803109 0.958675781,17.8849172 L0.958675781,17.885493 C0.959539453,17.8877961 0.960978906,17.8900992 0.961842578,17.8924023 L0.962130469,17.8926902 C0.964145703,17.8975844 0.965873047,17.9021906 0.968176172,17.9070848 L0.968464063,17.9073727 C0.970767188,17.9122668 0.972782422,17.916873 0.974509766,17.9220551 C0.974509766,17.922343 0.974221875,17.9217672 0.974509766,17.9220551 C0.975373438,17.9246461 0.976237109,17.9272371 0.977100781,17.9292523 C1.22238359,18.5142461 1.50969844,19.0756328 1.83386328,19.6105336 Z M4.42228789,22.6788719 L5.177425,21.8094422 C4.71564844,21.4084105 4.28237305,20.9688016 3.88825078,20.5027066 L3.00816914,21.2451766 C3.4423082,21.759925 3.91560039,22.2386871 4.42228789,22.6788719 Z M7.82256406,24.8121414 L8.27685547,23.7538555 C7.71575664,23.5131789 7.16934023,23.2267277 6.651425,22.9016992 L6.03908164,23.8773605 C6.27889453,24.0276395 6.52360156,24.1704332 6.77233906,24.3045902 L6.77262695,24.3045902 C6.77752109,24.3071812 6.78212734,24.3097723 6.78673359,24.3120754 C6.79364297,24.315818 6.80055234,24.3192727 6.80717383,24.3233031 L6.80746172,24.3233031 C6.81206797,24.3256062 6.81638633,24.3281973 6.82156836,24.3305004 L6.82156836,24.3307883 C6.82358359,24.331652 6.82588672,24.3330914 6.82790195,24.334243 L6.82818984,24.3345309 C6.83279609,24.336834 6.83682656,24.3391371 6.84143281,24.3414402 L6.84200859,24.3414402 C6.84661484,24.3440312 6.8509332,24.3466223 6.85553945,24.3486375 L6.85582734,24.3489254 C6.85841836,24.350077 6.86043359,24.3515164 6.86244883,24.352668 C6.86273672,24.3529559 6.86244883,24.352668 6.86302461,24.352668 C6.86734297,24.355259 6.87194922,24.3575621 6.87655547,24.3595773 C6.87713125,24.3598652 6.87713125,24.3598652 6.87770703,24.3598652 C6.87972227,24.3610168 6.8817375,24.3624563 6.88375273,24.3636078 L6.88404063,24.3638957 C6.88663164,24.3650473 6.88864688,24.3661988 6.89037422,24.3670625 L6.89066211,24.3673504 C6.89296523,24.368502 6.89498047,24.3696535 6.8969957,24.3708051 C6.89728359,24.371093 6.89757148,24.371093 6.89785938,24.3713809 C6.90246563,24.373684 6.90649609,24.376275 6.91081445,24.3780023 C6.91110234,24.3782902 6.91167813,24.3782902 6.91196602,24.3785781 C6.91426914,24.3797297 6.91628438,24.3805934 6.91829961,24.3820328 L6.91887539,24.3823207 C6.92117852,24.3834723 6.92290586,24.3846238 6.92492109,24.3857754 C6.92520898,24.3857754 6.9246332,24.3857754 6.92520898,24.3857754 C6.92751211,24.386927 6.92981523,24.3883664 6.93154258,24.3892301 L6.93269414,24.3898059 C6.93470938,24.3909574 6.9370125,24.392109 6.93873984,24.3932605 C6.93902773,24.3935484 6.93873984,24.3932605 6.93902773,24.3935484 C6.94133086,24.3944121 6.94334609,24.3958516 6.94536133,24.3967152 L6.94593711,24.3970031 C6.94795234,24.3981547 6.95025547,24.3993063 6.9522707,24.4004578 C6.95284648,24.4007457 6.95313438,24.4010336 6.95342227,24.4010336 C6.95745273,24.4033367 6.9614832,24.4056398 6.96551367,24.4076551 C6.96608945,24.4076551 6.96637734,24.407943 6.96666523,24.407943 C6.96925625,24.4093824 6.97127148,24.4102461 6.97328672,24.4113977 L6.9738625,24.4116855 C6.97587773,24.413125 6.97846875,24.4139887 6.9799082,24.4151402 L6.98077188,24.4154281 C6.983075,24.4165797 6.98537813,24.4177313 6.98710547,24.4188828 C6.98739336,24.4191707 6.98739336,24.4191707 6.98768125,24.4194586 C6.99027227,24.4203223 6.9922875,24.4214738 6.99430273,24.4226254 C6.99631797,24.423777 6.99862109,24.4249285 7.00063633,24.4260801 C7.00121211,24.4260801 7.00121211,24.426368 7.0015,24.4266559 C7.00351523,24.4278074 7.00610625,24.428959 7.0075457,24.4301105 C7.00812148,24.4301105 7.00812148,24.4301105 7.00840938,24.4303984 C7.0107125,24.43155 7.01272773,24.4324137 7.01474297,24.4335652 C7.01503086,24.4338531 7.01445508,24.4335652 7.01503086,24.4335652 C7.01733398,24.4350047 7.01906133,24.4358684 7.02107656,24.4370199 C7.02194023,24.4375957 7.02165234,24.4373078 7.02251602,24.4375957 C7.02395547,24.4390352 7.02625859,24.4398988 7.02827383,24.4410504 C7.02884961,24.4413383 7.02856172,24.4410504 7.02884961,24.4413383 C7.03144063,24.442202 7.03316797,24.4433535 7.0351832,24.4445051 C7.03547109,24.444793 7.03575898,24.444793 7.03604688,24.4450809 C7.03835,24.4459445 7.04036523,24.447384 7.04238047,24.4482477 C7.04266836,24.4485355 7.04295625,24.4485355 7.04324414,24.4488234 C7.0475625,24.4508387 7.05159297,24.4531418 7.05591133,24.4554449 C7.05648711,24.4554449 7.05619922,24.4554449 7.05648711,24.4557328 C7.05936602,24.4565965 7.06138125,24.457748 7.06339648,24.4591875 L7.06397227,24.4594754 C7.0659875,24.4603391 7.06829063,24.4614906 7.07059375,24.4626422 L7.07088164,24.4629301 C7.07289688,24.4637938 7.0752,24.4649453 7.07692734,24.4660969 C7.07750313,24.4663848 7.07779102,24.4666727 7.07807891,24.4666727 C7.08038203,24.4678242 7.08239727,24.4686879 7.0844125,24.4701273 C7.08729141,24.4712789 7.08930664,24.4724305 7.09132188,24.473582 C7.09160977,24.473582 7.09189766,24.4738699 7.09218555,24.4738699 C7.09391289,24.4750215 7.09592813,24.476173 7.09794336,24.4770367 C7.09823125,24.4773246 7.09823125,24.4773246 7.09880703,24.4773246 C7.10082227,24.4784762 7.1028375,24.4796277 7.10485273,24.4807793 C7.10514063,24.4810672 7.10485273,24.4810672 7.10542852,24.4810672 C7.10773164,24.4822188 7.10945898,24.4833703 7.11176211,24.484234 C7.11233789,24.484234 7.11262578,24.4845219 7.11291367,24.4848098 C7.11492891,24.4859613 7.11723203,24.4871129 7.11895938,24.4882645 C7.11924727,24.4882645 7.11924727,24.4882645 7.11982305,24.4882645 C7.12183828,24.489416 7.12385352,24.4905676 7.12586875,24.4914312 L7.12673242,24.492007 C7.12903555,24.4928707 7.13076289,24.4940223 7.13277813,24.4948859 C7.13335391,24.4951738 7.13392969,24.4954617 7.13421758,24.4957496 C7.13623281,24.4966133 7.13796016,24.4977648 7.14026328,24.4989164 L7.14055117,24.4989164 C7.1428543,24.5003559 7.14486953,24.5012195 7.14659688,24.5020832 C7.14717266,24.5023711 7.14774844,24.5023711 7.14803633,24.502659 C7.15033945,24.5038105 7.15235469,24.5049621 7.15408203,24.5058258 L7.1549457,24.5064016 C7.15696094,24.5075531 7.15926406,24.5084168 7.16099141,24.5095684 L7.16185508,24.5098562 C7.16387031,24.5110078 7.16559766,24.5121594 7.16790078,24.513023 C7.16818867,24.5133109 7.16876445,24.5133109 7.16905234,24.5135988 C7.17135547,24.5147504 7.17365859,24.515902 7.17567383,24.5170535 L7.17596172,24.5167656 C7.17797695,24.5182051 7.18028008,24.5190687 7.18200742,24.5199324 C7.18229531,24.5205082 7.1825832,24.5205082 7.18315898,24.5207961 C7.18517422,24.5216598 7.18747734,24.5228113 7.18920469,24.523675 C7.18949258,24.5239629 7.18978047,24.5242508 7.19006836,24.5245387 C7.19467461,24.5265539 7.19899297,24.528857 7.20331133,24.5305844 C7.20359922,24.5305844 7.204175,24.5308723 7.20475078,24.5311602 C7.20676602,24.5323117 7.20906914,24.5334633 7.21079648,24.534327 C7.21108438,24.5346148 7.21079648,24.5346148 7.21137227,24.5346148 C7.2133875,24.5357664 7.21540273,24.5366301 7.21741797,24.5377816 C7.21799375,24.5377816 7.21828164,24.5380695 7.21856953,24.5383574 C7.22058477,24.5392211 7.22288789,24.5400848 7.22490313,24.5415242 C7.22519102,24.5415242 7.2257668,24.5418121 7.22634258,24.5418121 C7.23037305,24.5441152 7.23440352,24.5464184 7.23843398,24.5481457 C7.23872188,24.5484336 7.23929766,24.5484336 7.23958555,24.5487215 C7.24160078,24.5495852 7.24390391,24.5507367 7.24563125,24.5518883 L7.24649492,24.5521762 C7.24851016,24.5533277 7.25052539,24.5544793 7.25282852,24.5550551 L7.2534043,24.5556309 C7.25570742,24.5564945 7.25772266,24.5576461 7.25973789,24.5590855 C7.26002578,24.5590855 7.26031367,24.5590855 7.26060156,24.5593734 C7.26520781,24.5613887 7.26923828,24.5636918 7.27355664,24.565707 C7.27384453,24.565707 7.27384453,24.565707 7.27442031,24.5659949 C7.27701133,24.5671465 7.27902656,24.5680102 7.28132969,24.5691617 L7.28190547,24.5697375 C7.28651172,24.5717527 7.29083008,24.573768 7.29543633,24.5760711 L7.2963,24.576359 C7.29831523,24.5772227 7.30061836,24.5783742 7.30263359,24.5795258 L7.30292148,24.5795258 C7.30522461,24.5806773 7.30752773,24.5818289 7.30954297,24.5829805 L7.30983086,24.5829805 C7.31213398,24.584132 7.31443711,24.5852836 7.31645234,24.5864352 C7.31674023,24.586723 7.31674023,24.5864352 7.31702813,24.586723 C7.32134648,24.5890262 7.32566484,24.5910414 7.33027109,24.5930566 C7.33055898,24.5930566 7.33055898,24.5930566 7.33084688,24.5933445 C7.33343789,24.5944961 7.33545313,24.5956477 7.33804414,24.5965113 C7.34005938,24.5979508 7.34265039,24.5991023 7.34466563,24.6002539 C7.34725664,24.6014055 7.34927188,24.602557 7.351575,24.6034207 L7.35215078,24.6039965 C7.35675703,24.6057238 7.36107539,24.608027 7.36568164,24.6103301 C7.36596953,24.6103301 7.36596953,24.6100422 7.36625742,24.6103301 C7.36856055,24.6114816 7.37086367,24.6126332 7.37287891,24.6137848 L7.3731668,24.6137848 C7.37806094,24.6158 7.3823793,24.618391 7.38698555,24.6201184 L7.38756133,24.6206941 C7.39245547,24.6227094 7.39706172,24.6253004 7.40166797,24.6270277 C7.40886523,24.6301945 7.41577461,24.6336492 7.42268398,24.6371039 L7.42297188,24.6371039 C7.43016914,24.6405586 7.43736641,24.6437254 7.44427578,24.6468922 L7.44859414,24.6468922 C7.57209922,24.7021672 7.69704375,24.758018 7.82256406,24.8121414 Z M11.713118,25.8007578 L11.8190617,24.6538016 C11.2116125,24.5979508 10.6038754,24.4928707 10.012548,24.3428797 L9.72955156,25.4587437 C9.82772227,25.4840781 9.92675664,25.5076852 10.0255031,25.5304285 C10.0303973,25.5315801 10.0352914,25.5327316 10.0404734,25.5338832 L10.0410492,25.5341711 C10.0459434,25.5353227 10.0505496,25.5361863 10.0560195,25.5373379 C10.0563074,25.5376258 10.0563074,25.5376258 10.0568832,25.5376258 C10.0591863,25.5382016 10.0614895,25.5387773 10.0635047,25.5393531 L10.0646563,25.5393531 C10.0666715,25.5402168 10.0686867,25.5407926 10.070702,25.5410805 L10.0715656,25.5410805 C10.0738688,25.5416562 10.0761719,25.542232 10.0781871,25.5425199 C10.078475,25.5428078 10.0790508,25.5430957 10.0793387,25.5430957 C10.0819297,25.5436715 10.0839449,25.5439594 10.0856723,25.5445352 L10.086248,25.5445352 C10.0885512,25.5453988 10.0905664,25.5456867 10.0925816,25.5462625 C10.0934453,25.5462625 10.0937332,25.5465504 10.0945969,25.5465504 C10.0969,25.5471262 10.0992031,25.547702 10.1012184,25.5479898 C10.1015063,25.5482777 10.1017941,25.5482777 10.102082,25.5482777 C10.1040973,25.5488535 10.1061125,25.5491414 10.1078398,25.5494293 C10.1084156,25.5497172 10.1092793,25.5500051 10.1095672,25.5500051 C10.1115824,25.5505809 10.1144613,25.5511566 10.1161887,25.5517324 C10.1164766,25.5517324 10.1173402,25.5517324 10.117916,25.5517324 C10.1196434,25.5523082 10.1216586,25.552884 10.1233859,25.5531719 C10.1242496,25.5531719 10.1242496,25.5531719 10.1251133,25.5531719 C10.1271285,25.5537477 10.1294316,25.5543234 10.131159,25.5546113 C10.1320227,25.5551871 10.1325984,25.5551871 10.1334621,25.555475 C10.1351895,25.5557629 10.1372047,25.5563387 10.1395078,25.5566266 C10.1397957,25.5566266 10.1406594,25.5569145 10.1409473,25.5569145 C10.1426746,25.5574902 10.144402,25.5577781 10.1467051,25.5583539 C10.1472809,25.5583539 10.1481445,25.5586418 10.1490082,25.5589297 C10.1507355,25.5592176 10.1527508,25.5595055 10.1550539,25.5600812 C10.1559176,25.5603691 10.1564934,25.5603691 10.157357,25.560657 C10.1587965,25.5609449 10.1602359,25.5612328 10.1616754,25.5615207 C10.1625391,25.5618086 10.1636906,25.5618086 10.1645543,25.5620965 C10.1662816,25.5626723 10.1682969,25.5629602 10.1700242,25.5635359 C10.1711758,25.5638238 10.1720395,25.5638238 10.173191,25.5641117 C10.1743426,25.5643996 10.175782,25.5646875 10.1769336,25.5649754 C10.178373,25.5652633 10.1798125,25.5652633 10.181252,25.5655512 C10.1826914,25.5658391 10.1841309,25.5664148 10.1855703,25.5667027 C10.1849945,25.566127 10.186434,25.566127 10.1872977,25.5667027 C10.1887371,25.5669906 10.1901766,25.5669906 10.1913281,25.5672785 C10.1930555,25.5675664 10.194207,25.5678543 10.1959344,25.5684301 C10.1973738,25.568718 10.1985254,25.5690059 10.199677,25.5692937 C10.2008285,25.5695816 10.2016922,25.5695816 10.2028438,25.5698695 C10.2045711,25.5701574 10.2065863,25.5704453 10.2083137,25.5710211 C10.2094652,25.571309 10.2103289,25.5715969 10.2114805,25.5718848 C10.212632,25.5718848 10.2134957,25.5718848 10.2146473,25.5724605 C10.2166625,25.5727484 10.2178141,25.5730363 10.2198293,25.5736121 C10.2209809,25.5736121 10.2221324,25.5739 10.2235719,25.5741879 C10.2247234,25.5744758 10.225875,25.5747637 10.2270266,25.5750516 C10.2278902,25.5753395 10.2290418,25.5753395 10.2299055,25.5756273 C10.2316328,25.5759152 10.2339359,25.576491 10.2356633,25.5767789 C10.236527,25.5770668 10.2376785,25.5773547 10.2388301,25.5776426 C10.2402695,25.5779305 10.2411332,25.5779305 10.2425727,25.5782184 C10.2434363,25.5785062 10.2443,25.5787941 10.2454516,25.579082 C10.2474668,25.5793699 10.2497699,25.5796578 10.2514973,25.5802336 C10.2523609,25.5802336 10.2532246,25.5805215 10.2540883,25.5808094 C10.2552398,25.5810973 10.2563914,25.5810973 10.2578309,25.5813852 C10.2592703,25.581673 10.2609977,25.5822488 10.262725,25.5825367 C10.2638766,25.5825367 10.265316,25.5831125 10.2664676,25.5831125 C10.2676191,25.5836883 10.2684828,25.5836883 10.2693465,25.5836883 C10.2713617,25.5842641 10.2736648,25.5848398 10.2756801,25.5851277 C10.2762559,25.5854156 10.2768316,25.5857035 10.2774074,25.5857035 C10.2791348,25.5862793 10.2799984,25.5862793 10.2814379,25.5868551 C10.2820137,25.5868551 10.2828773,25.5865672 10.283741,25.5868551 C10.2860441,25.5874309 10.2880594,25.5880066 10.2903625,25.5885824 C10.2909383,25.5885824 10.2915141,25.5888703 10.291802,25.5888703 C10.2938172,25.5891582 10.2946809,25.5894461 10.2961203,25.589734 C10.2966961,25.589734 10.2972719,25.5900219 10.2978477,25.5900219 C10.3004387,25.5908855 10.3027418,25.5911734 10.3050449,25.5917492 C10.3056207,25.5917492 10.3061965,25.5920371 10.3070602,25.5920371 C10.3093633,25.5926129 10.3119543,25.5929008 10.3142574,25.5934766 C10.3148332,25.5937645 10.315409,25.5937645 10.3159848,25.5940523 C10.3174242,25.5940523 10.3191516,25.5943402 10.3203031,25.5946281 C10.3208789,25.594916 10.3214547,25.594916 10.3220305,25.5952039 C10.3246215,25.5957797 10.3275004,25.5963555 10.3298035,25.5969312 C10.3300914,25.5969312 10.3306672,25.5969312 10.3309551,25.5969312 C10.3323945,25.5972191 10.333834,25.5977949 10.3352734,25.5980828 C10.3355613,25.5980828 10.3358492,25.5980828 10.3361371,25.5980828 C10.3395918,25.5989465 10.341607,25.5992344 10.3450617,25.5998102 C10.3453496,25.600098 10.3456375,25.600098 10.3459254,25.600098 C10.3508195,25.6009617 10.35485,25.6018254 10.3597441,25.602977 C10.360032,25.6032648 10.3603199,25.6032648 10.3608957,25.6032648 C10.3657898,25.6041285 10.3695324,25.6049922 10.3747145,25.6058559 C10.3750023,25.6061437 10.3752902,25.6061437 10.3752902,25.6061437 C10.3787449,25.6067195 10.381048,25.6072953 10.3845027,25.6078711 C10.3847906,25.608159 10.3847906,25.608159 10.3850785,25.608159 C10.3899727,25.6090227 10.394291,25.6098863 10.3991852,25.61075 C10.3991852,25.61075 10.399473,25.61075 10.3997609,25.6110379 C10.4043672,25.6121895 10.4089734,25.6130531 10.4138676,25.6139168 C10.4138676,25.6139168 10.4138676,25.6139168 10.4141555,25.6139168 C10.560116,25.6429937 10.7072281,25.6689039 10.854916,25.6927988 C10.8684469,25.695102 10.8811141,25.6971172 10.8940691,25.6988445 C10.8940691,25.6988445 10.8940691,25.6988445 10.894357,25.6988445 C10.8995391,25.6997082 10.9038574,25.7005719 10.9087516,25.7011477 C10.9090395,25.7011477 10.9090395,25.7011477 10.9090395,25.7011477 C10.9173883,25.7025871 10.9251613,25.7037387 10.9332223,25.7051781 C10.9335102,25.7051781 10.933798,25.7051781 10.9340859,25.7051781 C10.939268,25.7060418 10.9432984,25.7066176 10.9484805,25.7074812 C10.9487684,25.7074812 10.9490563,25.7077691 10.9493441,25.7077691 C10.9542383,25.7083449 10.9588445,25.7092086 10.9637387,25.7097844 C10.9640266,25.7100723 10.9643145,25.7097844 10.9643145,25.7100723 C10.9671934,25.7103602 10.9700723,25.7109359 10.9726633,25.7112238 C10.9729512,25.7112238 10.973527,25.7112238 10.9741027,25.7115117 C10.9758301,25.7117996 10.9769816,25.7117996 10.978709,25.7120875 C10.9815879,25.7126633 10.9847547,25.7132391 10.9876336,25.713527 C10.9882094,25.713527 10.9887852,25.713527 10.9893609,25.713527 C10.9933914,25.7143906 10.9982855,25.7152543 11.0026039,25.7158301 C11.0031797,25.716118 11.0037555,25.716118 11.0046191,25.7164059 C11.007498,25.7164059 11.0092254,25.7166937 11.0112406,25.7172695 C11.0121043,25.7172695 11.012968,25.7175574 11.0135438,25.7175574 C11.0152711,25.7178453 11.0158469,25.7178453 11.0175742,25.7181332 C11.0187258,25.7184211 11.0195895,25.7184211 11.0204531,25.718709 C11.0224684,25.718709 11.0244836,25.7192848 11.0264988,25.7195727 C11.0273625,25.7198605 11.0282262,25.7195727 11.0290898,25.7198605 C11.0308172,25.7198605 11.0319688,25.7201484 11.0331203,25.7204363 C11.0348477,25.7207242 11.0362871,25.7210121 11.0374387,25.7213 C11.039166,25.7213 11.0406055,25.7213 11.0423328,25.7215879 C11.0434844,25.7218758 11.0446359,25.7218758 11.0454996,25.7221637 C11.047227,25.7224516 11.0483785,25.7227395 11.0501059,25.7227395 C11.0515453,25.7230273 11.0526969,25.7233152 11.0544242,25.7236031 C11.0555758,25.7236031 11.0567273,25.723891 11.0578789,25.7241789 C11.0587426,25.7241789 11.0598941,25.7244668 11.0610457,25.7244668 C11.062773,25.7247547 11.0639246,25.7250426 11.0659398,25.7250426 C11.0673793,25.7250426 11.0685309,25.7256184 11.0696824,25.7259062 C11.0705461,25.7259062 11.0722734,25.7261941 11.0731371,25.7261941 C11.0745766,25.726482 11.0763039,25.7267699 11.0777434,25.7267699 C11.0791828,25.7270578 11.0806223,25.7273457 11.0817738,25.7276336 C11.0829254,25.7276336 11.0843648,25.7276336 11.0855164,25.7279215 C11.086668,25.7282094 11.0875316,25.7284973 11.0889711,25.7284973 C11.0906984,25.7287852 11.0927137,25.729073 11.094441,25.7293609 C11.0958805,25.7293609 11.0961684,25.7296488 11.0973199,25.7296488 C11.0987594,25.7296488 11.1004867,25.7299367 11.1019262,25.7302246 C11.1027898,25.7302246 11.1033656,25.7305125 11.1042293,25.7308004 C11.1062445,25.7308004 11.1082598,25.7313762 11.110275,25.7316641 C11.1114266,25.7316641 11.1122902,25.7316641 11.1131539,25.731952 C11.1148813,25.7322398 11.1166086,25.7325277 11.1183359,25.7328156 C11.1191996,25.7328156 11.1200633,25.7328156 11.120927,25.7328156 C11.1226543,25.7333914 11.1246695,25.7333914 11.1263969,25.7336793 C11.1272605,25.7339672 11.1278363,25.7339672 11.1287,25.7339672 C11.1307152,25.7342551 11.1327305,25.734543 11.1347457,25.7348309 C11.1356094,25.7351187 11.1361852,25.7351187 11.1367609,25.7351187 C11.1384883,25.7356945 11.1405035,25.7356945 11.1422309,25.7362703 C11.1425188,25.7359824 11.1433824,25.7362703 11.1436703,25.7365582 C11.1459734,25.7368461 11.1482766,25.7368461 11.1502918,25.737134 C11.1505797,25.737134 11.1520191,25.7374219 11.152307,25.7374219 C11.1543223,25.7377098 11.1563375,25.7379977 11.1580648,25.7382855 C11.1589285,25.7382855 11.1589285,25.7382855 11.1595043,25.7385734 C11.1618074,25.7388613 11.1638227,25.7391492 11.1658379,25.7394371 C11.1667016,25.7394371 11.1667016,25.7394371 11.1675652,25.739725 C11.1698684,25.7400129 11.1724594,25.7403008 11.1744746,25.7405887 C11.1747625,25.7405887 11.1747625,25.7405887 11.1750504,25.7405887 C11.1773535,25.7408766 11.1793688,25.7411645 11.181384,25.7414523 C11.1819598,25.7414523 11.1825355,25.7417402 11.1828234,25.7417402 C11.1851266,25.7420281 11.1874297,25.742316 11.1897328,25.7426039 L11.1905965,25.7426039 C11.1928996,25.7431797 11.1952027,25.7434676 11.1975059,25.7437555 L11.1977938,25.7440434 C11.2003848,25.7440434 11.2026879,25.7443312 11.204991,25.744907 C11.2055668,25.744907 11.2058547,25.744907 11.2061426,25.744907 C11.2110367,25.7457707 11.215643,25.7463465 11.2205371,25.7472102 L11.2211129,25.7469223 C11.3820438,25.7664988 11.5470051,25.7852117 11.713118,25.8007578 Z" id="Shape-Copy-4"></path>
            <path d="M13,0 L13,25.9101562 C20.1549457,25.9101562 25.9550781,20.1100238 25.9550781,12.9550781 C25.9550781,5.80013242 20.1549457,0 13,0 Z" id="Shape-Copy-5"></path>
        </g>
    </g>
</svg>