<?xml version="1.0" encoding="UTF-8"?>
<svg width="22px" height="22px" viewBox="0 0 22 22" version="1.1" xmlns="http://www.w3.org/2000/svg" xmlns:xlink="http://www.w3.org/1999/xlink">
    <!-- Generator: Sketch 48.1 (47250) - http://www.bohemiancoding.com/sketch -->
    <title>ic_format_shapes_24px copy</title>
    <desc>Created with Sketch.</desc>
    <defs></defs>
    <g id="Name-Project" stroke="none" stroke-width="1" fill="none" fill-rule="evenodd" transform="translate(-231.000000, -190.000000)">
        <g id="ic_format_shapes_24px-copy" transform="translate(230.000000, 189.000000)">
            <path d="M23,7 L23,1 L17,1 L17,3 L7,3 L7,1 L1,1 L1,7 L3,7 L3,17 L1,17 L1,23 L7,23 L7,21 L17,21 L17,23 L23,23 L23,17 L21,17 L21,7 L23,7 Z M3,3 L5,3 L5,5 L3,5 L3,3 Z M5,21 L3,21 L3,19 L5,19 L5,21 Z M17,19 L7,19 L7,17 L5,17 L5,7 L7,7 L7,5 L17,5 L17,7 L19,7 L19,17 L17,17 L17,19 Z M21,21 L19,21 L19,19 L21,19 L21,21 Z M19,5 L19,3 L21,3 L21,5 L19,5 Z M13.73,14 L10.24,14 L9.51,16 L7.89,16 L11.29,7 L12.69,7 L16.1,16 L14.47,16 L13.73,14 Z M10.69,12.74 L13.3,12.74 L12,8.91 L10.69,12.74 Z" id="Shape" fill="#999999" fill-rule="nonzero"></path>
            <polygon id="Shape" points="0 0 24 0 24 24 0 24"></polygon>
        </g>
    </g>
</svg>