<svg id="Layer_1" data-name="Layer 1" xmlns="http://www.w3.org/2000/svg" viewBox="0 0 305.9 97.9"><defs><style>.cls-1{isolation:isolate;}.cls-2{fill:#fff;}</style></defs><title>gahtc_logo</title><g class="cls-1"><path class="cls-2" d="M17.3,49.1c0-22.9,15.3-36.3,33.7-36.3a29.45,29.45,0,0,1,21.7,9l-8.2,10c-3.5-3.1-7.1-5.5-13-5.5-10.7,0-18.2,8.4-18.2,22.3,0,14.2,6.5,22.5,19.4,22.5,2.9,0,5.7-.7,7.4-2.1V57.1H48.7V44.4H73.9V76.2c-4.8,4.7-13.1,8.4-22.8,8.4C32.2,84.5,17.3,72.3,17.3,49.1Z" transform="translate(-17.3 -12.8)"/><path class="cls-2" d="M100.2,14.1H119l21.6,69.1H124.1l-4.2-16.4H98.7L94.5,83.2H78.6Zm1.7,40.5h14.7L115,48.2c-1.9-6.9-3.8-15.1-5.6-22.3H109c-1.7,7.3-3.5,15.4-5.4,22.3Z" transform="translate(-17.3 -12.8)"/></g><g class="cls-1"><path class="cls-2" d="M149,14.1h15.6V40.7h23.9V14.1h15.7V83.2H188.5V54.4H164.6V83.2H149Z" transform="translate(-17.3 -12.8)"/></g><g class="cls-1"><path class="cls-2" d="M231.8,27.3h-19V14.1h53.6V27.2h-19v56H231.7V27.3Z" transform="translate(-17.3 -12.8)"/></g><g class="cls-1"><path class="cls-2" d="M268.8,49.1c0-22.9,15.2-36.3,32.6-36.3a29.22,29.22,0,0,1,20.8,9l-8.3,10c-3.5-3.2-7.2-5.5-12.2-5.5-9.4,0-17,8.4-17,22.3,0,14.2,6.6,22.5,16.7,22.5,5.6,0,10.1-2.9,13.5-6.5l8.3,9.8A28.13,28.13,0,0,1,301,84.5C283.5,84.5,268.8,72.3,268.8,49.1Z" transform="translate(-17.3 -12.8)"/></g><g class="cls-1"><path class="cls-2" d="M29.3,104.4V106a.52.52,0,0,0,.2.4,7,7,0,0,1-1.6,1,6.65,6.65,0,0,1-2.1.3,4.75,4.75,0,0,1-3.5-1.3,4.26,4.26,0,0,1-1.4-3.1,4.62,4.62,0,0,1,.7-2.6A5.81,5.81,0,0,1,23.4,99a4.65,4.65,0,0,1,2.3-.6,3.18,3.18,0,0,1,1.4.2c.4.1.7.2,1,.3a2.07,2.07,0,0,0,.6.2,11.15,11.15,0,0,0,.3,2.3l-.5.1a3.17,3.17,0,0,0-1-1.8,2.67,2.67,0,0,0-1.8-.7,3,3,0,0,0-2.2,1.1,4.28,4.28,0,0,0-.9,2.8,4.47,4.47,0,0,0,.9,2.8,2.91,2.91,0,0,0,2.5,1.2,3.45,3.45,0,0,0,1.8-.5v-2.1c0-.4-.3-.6-1-.6h-.2c-.1,0-.1,0-.1-.1v-.3h3.7v.3c0,.1,0,.1-.1.1H30c-.3,0-.4,0-.5.1C29.4,104.1,29.3,104.2,29.3,104.4Z" transform="translate(-17.3 -12.8)"/><path class="cls-2" d="M31.7,99.9c0-.4,0-.7-.1-.8s-.2-.2-.3-.2h-.4c-.1,0-.1,0-.1-.1v-.4c.3,0,.8-.1,1.3-.1a4.07,4.07,0,0,0,1-.2c.1,0,.2,0,.2.1v8.3a.52.52,0,0,0,.2.4c.1.1.3.1.5.2h.2a.1.1,0,0,1,.1.1v.3H31v-.3c0-.1,0-.1.1-.1h.2a.76.76,0,0,0,.5-.2.52.52,0,0,0,.2-.4V99.9Z" transform="translate(-17.3 -12.8)"/><path class="cls-2" d="M34.8,104.7a3.37,3.37,0,0,1,.8-2.3,2.87,2.87,0,0,1,2.3-.9,3.19,3.19,0,0,1,1.4.3,3.59,3.59,0,0,1,1,.7,3.13,3.13,0,0,1,.5,1,3.12,3.12,0,0,1,0,2.2,2.07,2.07,0,0,1-.6,1,1.83,1.83,0,0,1-1,.7,3.19,3.19,0,0,1-1.4.3,2.79,2.79,0,0,1-2.2-.9A3.23,3.23,0,0,1,34.8,104.7Zm3-2.6c-.4,0-.7.2-1,.7a3.06,3.06,0,0,0-.3,1.7,3.59,3.59,0,0,0,.2,1.1,3,3,0,0,0,.6,1.1,1.38,1.38,0,0,0,.9.5.82.82,0,0,0,.8-.5,3.1,3.1,0,0,0,.4-1.6,4.32,4.32,0,0,0-.4-2.2A1.45,1.45,0,0,0,37.8,102.1Z" transform="translate(-17.3 -12.8)"/><path class="cls-2" d="M42.4,99.9c0-.4,0-.7-.1-.8s-.2-.2-.3-.2h-.4c-.1,0-.1,0-.1-.1v-.4c.3,0,.8-.1,1.3-.1a4.07,4.07,0,0,0,1-.2c.1,0,.2,0,.2.1v3.9a2.38,2.38,0,0,1,1.4-.6,2.5,2.5,0,0,1,1.8.8,2.72,2.72,0,0,1,.7,2,3.17,3.17,0,0,1-1,2.5,3.42,3.42,0,0,1-2.2,1,1.62,1.62,0,0,1-1.4-.7l-.4.7-.5-.1c0-.3.1-.7.1-1.1V99.9Zm1.5,6.9a.91.91,0,0,0,.7.3,1.31,1.31,0,0,0,1.2-.7,3.58,3.58,0,0,0,.4-1.9,3.06,3.06,0,0,0-.4-1.7c-.3-.5-.5-.7-.9-.7a2.11,2.11,0,0,0-1.1.4v4.3Z" transform="translate(-17.3 -12.8)"/><path class="cls-2" d="M52.2,106.9a2.91,2.91,0,0,1-1.7.8,1.7,1.7,0,0,1-1.3-.4,1.25,1.25,0,0,1-.4-1.1,1.43,1.43,0,0,1,.6-1.2,7.84,7.84,0,0,1,1.8-.8l1-.3a4.66,4.66,0,0,0-.2-1.6.84.84,0,0,0-.7-.4,1.48,1.48,0,0,0-.7.1q-.3.15-.3.3v.6c0,.1-.1.2-.2.3a.76.76,0,0,1-.5.2.53.53,0,0,1-.6-.6c0-.4.3-.7.8-1.1a3.32,3.32,0,0,1,1.6-.5,2.54,2.54,0,0,1,1.6.5,2.4,2.4,0,0,1,.6,1.9v2.5a.37.37,0,0,0,.1.3c0,.1.1.2.2.3a.5.5,0,0,0,.6,0l.1-.1a.1.1,0,0,1,.1.1c0,.1.1.1.1.2l-.2.2a2.19,2.19,0,0,1-.5.3,1.45,1.45,0,0,1-.7.2,2,2,0,0,1-.9-.2c-.2-.1-.2-.2-.3-.5Zm0-.5v-1.8l-.8.2a1.93,1.93,0,0,0-.9.5,1.08,1.08,0,0,0-.2.8.8.8,0,0,0,.9.9C51.4,107,51.7,106.8,52.2,106.4Z" transform="translate(-17.3 -12.8)"/><path class="cls-2" d="M56.1,99.9c0-.4,0-.7-.1-.8s-.2-.2-.3-.2h-.4c-.1,0-.1,0-.1-.1v-.4c.3,0,.8-.1,1.3-.1a4.07,4.07,0,0,0,1-.2c.1,0,.2,0,.2.1v8.3a.52.52,0,0,0,.2.4c.1.1.3.1.5.2h.2a.1.1,0,0,1,.1.1v.3H55.4v-.3c0-.1,0-.1.1-.1h.2a.76.76,0,0,0,.5-.2.52.52,0,0,0,.2-.4V99.9Z" transform="translate(-17.3 -12.8)"/><path class="cls-2" d="M64.2,106.5a.45.45,0,0,0,0,.5,1,1,0,0,0,.7.2c.2,0,.3,0,.3.1v.3l-.1.1H62.2v-.3c0-.1.1-.1.3-.1s.3-.1.5-.2a.92.92,0,0,0,.4-.6l3-7.3a.65.65,0,0,1,1.2,0l2.8,7.3a1.63,1.63,0,0,0,.3.6.52.52,0,0,0,.4.2h.6v.4l-.1.1H67.8l-.1-.1v-.3c0-.1.1-.1.4-.1h.4c.2,0,.3-.1.3-.4v-.2l-.8-2.3H65.2c-.1,0-.1.1-.1.2Zm1.4-2.9h2l-1.1-3.1-1.2,2.9v.1A1,1,0,0,0,65.6,103.6Z" transform="translate(-17.3 -12.8)"/><path class="cls-2" d="M74.6,102.4a2.4,2.4,0,0,1,1.7-.9,1.42,1.42,0,0,1,.6.2c.1.2.2.3.2.5a1.42,1.42,0,0,1-.2.6c-.1.2-.3.2-.5.2s-.3,0-.4-.1l-.3-.3a.31.31,0,0,0-.2-.1c-.2,0-.3.1-.5.2a1.33,1.33,0,0,0-.4,1v2.9a.37.37,0,0,0,.1.3l.2.2c.1,0,.2.1.4.1h.1a.1.1,0,0,1,.1.1v.3H72.3v-.3c0-.1,0-.1.1-.1h.1a.76.76,0,0,0,.5-.2.52.52,0,0,0,.2-.4v-3.3c0-.3,0-.5-.1-.6a.22.22,0,0,0-.2-.2l-.6-.1v-.5a14.43,14.43,0,0,0,2.3-.4h.1v.9Z" transform="translate(-17.3 -12.8)"/><path class="cls-2" d="M82.7,106.4a2.08,2.08,0,0,1-2.1,1.3,3.11,3.11,0,0,1-2.2-.8,2.82,2.82,0,0,1-.7-2.1,3.41,3.41,0,0,1,.9-2.4,2.88,2.88,0,0,1,2.1-.9,2.54,2.54,0,0,1,1.6.4,1.22,1.22,0,0,1,.6,1,.7.7,0,1,1-1.4,0c-.1-.6-.3-1-.8-1a1.22,1.22,0,0,0-1,.6,3,3,0,0,0-.4,1.8,3.45,3.45,0,0,0,.5,1.8,1.31,1.31,0,0,0,1.2.7,2,2,0,0,0,1.5-.9Zm6.4.1a.52.52,0,0,0,.2.4c.1.1.3.1.5.2H90a.1.1,0,0,1,.1.1v.3H86.8v-.3c0-.1,0-.1.1-.1H87c.2,0,.3-.1.4-.1s.1-.1.2-.2a.37.37,0,0,0,.1-.3v-3a2.24,2.24,0,0,0-.1-1,.6.6,0,0,0-.6-.3,3.85,3.85,0,0,0-1.6.7v3.6c0,.2,0,.3.1.4s.3.1.5.2h.1a.1.1,0,0,1,.1.1v.3H83v-.3c0-.1,0-.1.1-.1h.2a.76.76,0,0,0,.5-.2.52.52,0,0,0,.2-.4V99.9c0-.4,0-.7-.1-.8s-.2-.2-.3-.2h-.4c-.1,0-.1,0-.1-.1v-.4c.3,0,.8-.1,1.3-.1a4.07,4.07,0,0,0,1-.2c.1,0,.2,0,.2.1v4.2a3,3,0,0,1,1.1-.6,2,2,0,0,1,1-.2,1.36,1.36,0,0,1,1.2.5,2.67,2.67,0,0,1,.4,1.7v2.7Z" transform="translate(-17.3 -12.8)"/><path class="cls-2" d="M93.1,103.2v3.3a.52.52,0,0,0,.2.4c.1.1.3.1.5.2h.1a.1.1,0,0,1,.1.1v.3H90.8v-.3c0-.1,0-.1.1-.1h.2a.76.76,0,0,0,.5-.2c.1-.1.1-.2.1-.4v-3.3a1.48,1.48,0,0,0-.1-.7c-.1-.2-.1-.2-.2-.2l-.6-.1v-.4c1.2-.2,2-.3,2.3-.4h.1A12.83,12.83,0,0,0,93.1,103.2Zm-1.3-2.9a.73.73,0,0,1-.2-.6,1.42,1.42,0,0,1,.2-.6.73.73,0,0,1,.6-.2,1.42,1.42,0,0,1,.6.2.73.73,0,0,1,.2.6,1.42,1.42,0,0,1-.2.6.73.73,0,0,1-.6.2A.45.45,0,0,1,91.8,100.3Z" transform="translate(-17.3 -12.8)"/><path class="cls-2" d="M96.9,102.3v3.5c0,.7.1,1,.4,1a1.61,1.61,0,0,0,.9-.3l.3.3a2.28,2.28,0,0,1-1.9,1c-.8,0-1.2-.5-1.2-1.4v-4h-.7c-.2,0-.2,0-.2-.1v-.4c0-.1.2-.1.5-.1a.75.75,0,0,0,.7-.4,2.36,2.36,0,0,0,.2-1.3l1.1-.4v2.2h1.3c.2,0,.3,0,.3.1v.3c0,.2-.2.2-.5.2H96.9Z" transform="translate(-17.3 -12.8)"/><path class="cls-2" d="M104.1,106.1l.3.3a2.33,2.33,0,0,1-2.4,1.3,3,3,0,0,1-2.2-.8,2.72,2.72,0,0,1-.7-2,3.24,3.24,0,0,1,.9-2.4,2.83,2.83,0,0,1,2-.9,2.11,2.11,0,0,1,1.9.7,2.52,2.52,0,0,1,.6,1.7c0,.2-.2.3-.5.3h-3.3v.4a3.1,3.1,0,0,0,.5,1.7,1.46,1.46,0,0,0,1.3.7A3.09,3.09,0,0,0,104.1,106.1Zm-3.3-2.4H103v-.1a1.61,1.61,0,0,0-.3-1.1c-.2-.2-.4-.4-.6-.4a.37.37,0,0,0-.3.1c-.1.1-.2.1-.4.2a2.18,2.18,0,0,0-.4.5A1.55,1.55,0,0,0,100.8,103.7Z" transform="translate(-17.3 -12.8)"/><path class="cls-2" d="M110.6,106.4a2.08,2.08,0,0,1-2.1,1.3,3.11,3.11,0,0,1-2.2-.8,2.82,2.82,0,0,1-.7-2.1,3.41,3.41,0,0,1,.9-2.4,2.88,2.88,0,0,1,2.1-.9,2.54,2.54,0,0,1,1.6.4,1.22,1.22,0,0,1,.6,1,.7.7,0,1,1-1.4,0c-.1-.6-.3-1-.8-1a1.22,1.22,0,0,0-1,.6,3,3,0,0,0-.4,1.8,3.45,3.45,0,0,0,.5,1.8,1.31,1.31,0,0,0,1.2.7,2,2,0,0,0,1.5-.9Z" transform="translate(-17.3 -12.8)"/><path class="cls-2" d="M113.7,102.3v3.5c0,.7.1,1,.4,1a1.61,1.61,0,0,0,.9-.3l.3.3a2.28,2.28,0,0,1-1.9,1c-.8,0-1.2-.5-1.2-1.4v-4h-.7c-.2,0-.2,0-.2-.1v-.4c0-.1.2-.1.5-.1a.75.75,0,0,0,.7-.4,2.36,2.36,0,0,0,.2-1.3l1.1-.4v2.2h1.3c.2,0,.3,0,.3.1v.3c0,.2-.2.2-.5.2h-1.2Z" transform="translate(-17.3 -12.8)"/><path class="cls-2" d="M121.8,106a.76.76,0,0,0,.2.5,1.17,1.17,0,0,0,.7.2v.4a6.4,6.4,0,0,0-1.9.5h-.5V107a3.23,3.23,0,0,1-1.8.6,2.07,2.07,0,0,1-1.5-.5,2,2,0,0,1-.4-1.4v-3.1a.75.75,0,0,0-.1-.5c-.1-.1-.2-.2-.3-.2h-.4v-.4h2.4v4a2.68,2.68,0,0,0,.2,1.1c.2.2.3.3.5.3a2.39,2.39,0,0,0,1.4-.5v-3.8c0-.4-.1-.7-.4-.7h-.5v-.4h2.4V106Z" transform="translate(-17.3 -12.8)"/><path class="cls-2" d="M125.9,102.4a2.4,2.4,0,0,1,1.7-.9,1.42,1.42,0,0,1,.6.2c.1.2.2.3.2.5a1.42,1.42,0,0,1-.2.6c-.1.2-.3.2-.5.2s-.3,0-.4-.1l-.3-.3a.31.31,0,0,0-.2-.1c-.2,0-.3.1-.5.2a1.33,1.33,0,0,0-.4,1v2.9a.37.37,0,0,0,.1.3l.2.2c.1,0,.2.1.4.1h.1a.1.1,0,0,1,.1.1v.3h-3.2v-.3c0-.1,0-.1.1-.1h.1a.76.76,0,0,0,.5-.2.52.52,0,0,0,.2-.4v-3.3c0-.3,0-.5-.1-.6a.22.22,0,0,0-.2-.2l-.6-.1v-.5a14.43,14.43,0,0,0,2.3-.4h.1v.9Z" transform="translate(-17.3 -12.8)"/><path class="cls-2" d="M132.3,106.9a2.91,2.91,0,0,1-1.7.8,1.7,1.7,0,0,1-1.3-.4,1.25,1.25,0,0,1-.4-1.1,1.43,1.43,0,0,1,.6-1.2,7.84,7.84,0,0,1,1.8-.8l1-.3a4.66,4.66,0,0,0-.2-1.6.84.84,0,0,0-.7-.4,1.48,1.48,0,0,0-.7.1q-.3.15-.3.3v.6c0,.1-.1.2-.2.3a.76.76,0,0,1-.5.2.53.53,0,0,1-.6-.6c0-.4.3-.7.8-1.1a3.32,3.32,0,0,1,1.6-.5,2.54,2.54,0,0,1,1.6.5,2.4,2.4,0,0,1,.6,1.9v2.5a.37.37,0,0,0,.1.3c0,.1.1.2.2.3a.5.5,0,0,0,.6,0l.1-.1a.1.1,0,0,1,.1.1c0,.1.1.1.1.2l-.2.2a2.19,2.19,0,0,1-.5.3,1.45,1.45,0,0,1-.7.2,2,2,0,0,1-.9-.2c-.2-.1-.1-.2-.3-.5Zm.1-.5v-1.8l-.8.2a1.93,1.93,0,0,0-.9.5,1.08,1.08,0,0,0-.2.8.8.8,0,0,0,.9.9C131.6,107,131.9,106.8,132.4,106.4Z" transform="translate(-17.3 -12.8)"/><path class="cls-2" d="M136.3,99.9c0-.4,0-.7-.1-.8s-.2-.2-.3-.2h-.4c-.1,0-.1,0-.1-.1v-.4c.3,0,.8-.1,1.3-.1a4.07,4.07,0,0,0,1-.2c.1,0,.2,0,.2.1v8.3a.52.52,0,0,0,.2.4c.1.1.3.1.5.2h.2a.1.1,0,0,1,.1.1v.3h-3.3v-.3c0-.1,0-.1.1-.1h.2a.76.76,0,0,0,.5-.2.52.52,0,0,0,.2-.4V99.9Z" transform="translate(-17.3 -12.8)"/><path class="cls-2" d="M149.2,99.8a.76.76,0,0,0-.2-.5c-.1-.1-.3-.1-.6-.1h-.2c-.1,0-.1,0-.1-.1v-.3h3.8v.3c0,.1,0,.1-.1.1h-.2c-.5,0-.8.2-.8.6v6.7c0,.4.3.6.8.6h.2c.1,0,.1,0,.1.1v.3h-3.8v-.3c0-.1,0-.1.1-.1h.2c.3,0,.5,0,.6-.1a.59.59,0,0,0,.2-.5v-3.3h-3.8v3.3c0,.4.2.6.7.6h.2c.1,0,.1,0,.1.1v.3h-3.8v-.3c0-.1,0-.1.1-.1h.2c.3,0,.5,0,.6-.1a.59.59,0,0,0,.2-.5V99.8a.76.76,0,0,0-.2-.5c-.1-.1-.3-.1-.6-.1h-.2c-.1,0-.1,0-.1-.1v-.3h3.8v.3c0,.1,0,.1-.1.1h-.2c-.5,0-.8.2-.7.6v2.8h3.8Z" transform="translate(-17.3 -12.8)"/><path class="cls-2" d="M155.1,103.2v3.3a.52.52,0,0,0,.2.4c.1.1.3.1.5.2h.1a.1.1,0,0,1,.1.1v.3h-3.2v-.3c0-.1,0-.1.1-.1h.2a.76.76,0,0,0,.5-.2c.1-.1.1-.2.1-.4v-3.3a1.48,1.48,0,0,0-.1-.7c-.1-.2-.1-.2-.2-.2l-.6-.1v-.4c1.2-.2,2-.3,2.3-.4h.1A12.83,12.83,0,0,0,155.1,103.2Zm-1.3-2.9a.73.73,0,0,1-.2-.6,1.42,1.42,0,0,1,.2-.6.73.73,0,0,1,.6-.2,1.42,1.42,0,0,1,.6.2.73.73,0,0,1,.2.6,1.42,1.42,0,0,1-.2.6.73.73,0,0,1-.6.2A.45.45,0,0,1,153.8,100.3Z" transform="translate(-17.3 -12.8)"/><path class="cls-2" d="M156.7,105.6h.5a3.2,3.2,0,0,0,.5,1.3,1.6,1.6,0,0,0,1.1.4,1.42,1.42,0,0,0,.6-.2,1.15,1.15,0,0,0,0-1.3,2.15,2.15,0,0,0-.7-.4,3.53,3.53,0,0,1-1.3-.8,1.76,1.76,0,0,1-.6-1.3,1.43,1.43,0,0,1,.6-1.2,2.46,2.46,0,0,1,1.5-.5,3.29,3.29,0,0,1,1.7.4c.1.5.1.9.2,1.4l-.5.1a1.87,1.87,0,0,0-.5-1,1.14,1.14,0,0,0-.8-.3.76.76,0,0,0-.5.2c-.2.1-.2.3-.2.6a1.05,1.05,0,0,0,.8,1,3.54,3.54,0,0,1,1.6.9,1.56,1.56,0,0,1,.6,1.2,1.36,1.36,0,0,1-.7,1.3,2.93,2.93,0,0,1-1.6.4,3.44,3.44,0,0,1-.9-.1,4.14,4.14,0,0,0-1-.1A5.92,5.92,0,0,1,156.7,105.6Z" transform="translate(-17.3 -12.8)"/><path class="cls-2" d="M164.3,102.3v3.5c0,.7.1,1,.4,1a1.61,1.61,0,0,0,.9-.3l.3.3a2.28,2.28,0,0,1-1.9,1c-.8,0-1.2-.5-1.2-1.4v-4h-.7c-.2,0-.2,0-.2-.1v-.4c0-.1.2-.1.5-.1a.75.75,0,0,0,.7-.4,2.36,2.36,0,0,0,.2-1.3l1.1-.4v2.2h1.3c.2,0,.3,0,.3.1v.3c0,.2-.2.2-.5.2h-1.2Z" transform="translate(-17.3 -12.8)"/><path class="cls-2" d="M166.6,104.7a3.37,3.37,0,0,1,.8-2.3,2.87,2.87,0,0,1,2.3-.9,3.19,3.19,0,0,1,1.4.3,3.59,3.59,0,0,1,1,.7,3.13,3.13,0,0,1,.5,1,3.13,3.13,0,0,1,0,2.2,2.07,2.07,0,0,1-.6,1,1.83,1.83,0,0,1-1,.7,3.19,3.19,0,0,1-1.4.3,2.79,2.79,0,0,1-2.2-.9A3.23,3.23,0,0,1,166.6,104.7Zm3-2.6c-.4,0-.7.2-1,.7a3.06,3.06,0,0,0-.3,1.7,3.6,3.6,0,0,0,.2,1.1,3,3,0,0,0,.6,1.1,1.38,1.38,0,0,0,.9.5.82.82,0,0,0,.8-.5,3.1,3.1,0,0,0,.4-1.6,4.32,4.32,0,0,0-.4-2.2A1.45,1.45,0,0,0,169.6,102.1Z" transform="translate(-17.3 -12.8)"/><path class="cls-2" d="M176.1,102.4a2.4,2.4,0,0,1,1.7-.9,1.42,1.42,0,0,1,.6.2c.1.2.2.3.2.5a1.42,1.42,0,0,1-.2.6c-.1.2-.3.2-.5.2s-.3,0-.4-.1l-.3-.3a.31.31,0,0,0-.2-.1c-.2,0-.3.1-.5.2a1.33,1.33,0,0,0-.4,1v2.9a.37.37,0,0,0,.1.3l.2.2c.1,0,.2.1.4.1h.1a.1.1,0,0,1,.1.1v.3h-3.2v-.3c0-.1,0-.1.1-.1h.1a.76.76,0,0,0,.5-.2.52.52,0,0,0,.2-.4v-3.3c0-.3,0-.5-.1-.6a.22.22,0,0,0-.2-.2l-.6-.1v-.5a14.43,14.43,0,0,0,2.3-.4h.1v.9Z" transform="translate(-17.3 -12.8)"/><path class="cls-2" d="M184.8,102.9l-2.3,5.6a5.94,5.94,0,0,1-.4.8c-.1.2-.3.5-.4.7a2.65,2.65,0,0,1-.6.5,1.85,1.85,0,0,1-.7.2,2.54,2.54,0,0,1-.7-.2.68.68,0,0,1-.4-.6.76.76,0,0,1,.2-.5,1.07,1.07,0,0,1,.6-.2.37.37,0,0,1,.3.1c.1.1.2.1.2.2s.2.2.3.2a.31.31,0,0,0,.2-.1,1.07,1.07,0,0,0,.3-.5,5.9,5.9,0,0,1,.4-.8l.2-.7-1.9-4.8a1.4,1.4,0,0,0-.4-.7.85.85,0,0,0-.6-.2c-.1,0-.1,0-.1-.1v-.3h3.2v.3c0,.1,0,.1-.1.1-.3,0-.4,0-.5.1a.45.45,0,0,0,0,.5l1.3,3.4c.5-1.3,1-2.5,1.3-3.4.1-.4,0-.6-.5-.6-.1,0-.1,0-.1-.1v-.3h2.5v.3c0,.1-.1.1-.2.1A1.41,1.41,0,0,0,184.8,102.9Z" transform="translate(-17.3 -12.8)"/><path class="cls-2" d="M189.9,98.7h5.8a.27.27,0,0,0,.3-.3l.5-.1.3,2.1-.5.1a2.46,2.46,0,0,0-.4-1,1.29,1.29,0,0,0-.8-.2h-.7a.75.75,0,0,0-.5.1c-.1.1-.1.2-.1.5v6.6a.76.76,0,0,0,.2.5c.1.1.3.1.6.1h.4c.1,0,.1,0,.1.1v.3H191v-.3c0-.1,0-.1.1-.1h.4c.5,0,.8-.2.7-.6V99.9c0-.2,0-.3-.1-.4a.75.75,0,0,0-.5-.1h-.7a1.29,1.29,0,0,0-.8.2,1.91,1.91,0,0,0-.4,1l-.5-.1.3-2.1.5.1C189.6,98.6,189.7,98.7,189.9,98.7Z" transform="translate(-17.3 -12.8)"/><path class="cls-2" d="M201.4,106.1l.3.3a2.33,2.33,0,0,1-2.4,1.3,3,3,0,0,1-2.2-.8,2.72,2.72,0,0,1-.7-2,3.24,3.24,0,0,1,.9-2.4,2.83,2.83,0,0,1,2-.9,2.11,2.11,0,0,1,1.9.7,3.16,3.16,0,0,1,.6,1.7c0,.2-.2.3-.5.3H198v.4a3.1,3.1,0,0,0,.5,1.7,1.57,1.57,0,0,0,1.3.7A2.75,2.75,0,0,0,201.4,106.1Zm-3.3-2.4h2.2v-.1a1.61,1.61,0,0,0-.3-1.1c-.2-.2-.4-.4-.6-.4a.37.37,0,0,0-.3.1c-.1.1-.2.1-.4.2a2.18,2.18,0,0,0-.4.5A1.55,1.55,0,0,0,198.1,103.7Z" transform="translate(-17.3 -12.8)"/><path class="cls-2" d="M206.2,106.9a2.91,2.91,0,0,1-1.7.8,1.7,1.7,0,0,1-1.3-.4,1.25,1.25,0,0,1-.4-1.1,1.43,1.43,0,0,1,.6-1.2,7.84,7.84,0,0,1,1.8-.8l1-.3a4.66,4.66,0,0,0-.2-1.6.84.84,0,0,0-.7-.4,1.48,1.48,0,0,0-.7.1q-.3.15-.3.3v.6c0,.1-.1.2-.2.3a.76.76,0,0,1-.5.2.53.53,0,0,1-.6-.6c0-.4.3-.7.8-1.1a3.32,3.32,0,0,1,1.6-.5,2.54,2.54,0,0,1,1.6.5,2.4,2.4,0,0,1,.6,1.9v2.5a.37.37,0,0,0,.1.3c0,.1.1.2.2.3a.5.5,0,0,0,.6,0l.1-.1a.1.1,0,0,1,.1.1c0,.1.1.1.1.2s0,.1-.2.2a2.19,2.19,0,0,1-.5.3,1.45,1.45,0,0,1-.7.2,2,2,0,0,1-.9-.2,1.41,1.41,0,0,1-.3-.5Zm0-.5v-1.8l-.8.2a1.93,1.93,0,0,0-.9.5,1.08,1.08,0,0,0-.2.8.8.8,0,0,0,.9.9A1.83,1.83,0,0,0,206.2,106.4Z" transform="translate(-17.3 -12.8)"/><path class="cls-2" d="M214.4,106.4a2.17,2.17,0,0,1-2.1,1.3,3.11,3.11,0,0,1-2.2-.8,2.82,2.82,0,0,1-.7-2.1,3.41,3.41,0,0,1,.9-2.4,2.88,2.88,0,0,1,2.1-.9,2.54,2.54,0,0,1,1.6.4,1.22,1.22,0,0,1,.6,1,.7.7,0,1,1-1.4,0c-.1-.6-.3-1-.8-1a1.22,1.22,0,0,0-1,.6,3,3,0,0,0-.4,1.8,3.45,3.45,0,0,0,.5,1.8,1.31,1.31,0,0,0,1.2.7,2,2,0,0,0,1.5-.9Zm6.4.1a.52.52,0,0,0,.2.4c.1.1.3.1.5.2h.2a.1.1,0,0,1,.1.1v.3h-3.3v-.3c0-.1,0-.1.1-.1h.1c.2,0,.3-.1.4-.1s.1-.1.2-.2a.37.37,0,0,0,.1-.3v-3a2.24,2.24,0,0,0-.1-1,.6.6,0,0,0-.6-.3,3.85,3.85,0,0,0-1.6.7v3.6c0,.2,0,.3.1.4s.3.1.5.2h.1a.1.1,0,0,1,.1.1v.3h-3.2v-.3c0-.1,0-.1.1-.1h.2a.76.76,0,0,0,.5-.2.52.52,0,0,0,.2-.4V99.9c0-.4,0-.7-.1-.8s-.2-.2-.3-.2h-.4c-.1,0-.1,0-.1-.1v-.4c.3,0,.8-.1,1.3-.1a4.07,4.07,0,0,0,1-.2c.1,0,.2,0,.2.1v4.2a3,3,0,0,1,1.1-.6,2,2,0,0,1,1-.2,1.36,1.36,0,0,1,1.2.5,2.67,2.67,0,0,1,.4,1.7v2.7Z" transform="translate(-17.3 -12.8)"/><path class="cls-2" d="M224.8,103.2v3.3a.52.52,0,0,0,.2.4c.1.1.3.1.5.2h.1a.1.1,0,0,1,.1.1v.3h-3.2v-.3c0-.1,0-.1.1-.1h.2a.76.76,0,0,0,.5-.2.52.52,0,0,0,.2-.4v-3.3a1.48,1.48,0,0,0-.1-.7c-.1-.1-.1-.2-.2-.2l-.6-.1v-.4c1.2-.2,2-.3,2.3-.4h.1A16.24,16.24,0,0,0,224.8,103.2Zm-1.3-2.9a.73.73,0,0,1-.2-.6,1.42,1.42,0,0,1,.2-.6.73.73,0,0,1,.6-.2,1.42,1.42,0,0,1,.6.2.73.73,0,0,1,.2.6,1.42,1.42,0,0,1-.2.6,1,1,0,0,1-1.2,0Z" transform="translate(-17.3 -12.8)"/><path class="cls-2" d="M228.7,102.4a3.24,3.24,0,0,1,2.1-.9c.7,0,1.1.2,1.3.6a3.51,3.51,0,0,1,.3,1.6v2.8c0,.2,0,.3.2.4s.3.1.5.2h.1a.1.1,0,0,1,.1.1v.3h-3.1v-.3c0-.1,0-.1.1-.1h.1c.2-.1.4-.1.5-.2a.52.52,0,0,0,.2-.4v-2.9a2.51,2.51,0,0,0-.1-1,.46.46,0,0,0-.5-.3,3.84,3.84,0,0,0-1.7.6v3.6a.52.52,0,0,0,.2.4.76.76,0,0,0,.5.2h.1a.1.1,0,0,1,.1.1v.3h-3.2v-.3c0-.1,0-.1.1-.1h.1c.2-.1.4-.1.5-.2s.1-.2.1-.4v-3.3c0-.3,0-.5-.1-.6a.22.22,0,0,0-.2-.2l-.6-.1v-.5a14.43,14.43,0,0,0,2.3-.4h.1v1Z" transform="translate(-17.3 -12.8)"/><path class="cls-2" d="M239.7,102.3c-.3,0-.4-.1-.5-.4-.1-.1-.1-.2-.2-.2a.76.76,0,0,0-.4.2,1.86,1.86,0,0,1,.7,1.6,1.8,1.8,0,0,1-.7,1.5,2.72,2.72,0,0,1-1.7.6,2.68,2.68,0,0,1-1.1-.2c-.1.1-.1.4-.1.7a.69.69,0,0,0,.6.7,1.75,1.75,0,0,0,.5-.1h.8a3.58,3.58,0,0,1,2.1.5,1.55,1.55,0,0,1,.7,1,1.76,1.76,0,0,1-.6,1.3,3.77,3.77,0,0,1-1.5.9,5.82,5.82,0,0,1-1.9.3,2.73,2.73,0,0,1-1.6-.4,1.36,1.36,0,0,1-.7-1.3,2.08,2.08,0,0,1,1.1-1.6c-.4-.3-.7-.6-.7-1a1.88,1.88,0,0,1,.7-1.3c-.2-.2-.5-.4-.6-.7a1.64,1.64,0,0,1-.2-1,1.8,1.8,0,0,1,.7-1.5,2.79,2.79,0,0,1,1.8-.6,2.5,2.5,0,0,1,1.3.3,1.61,1.61,0,0,1,.7-.4,2.54,2.54,0,0,1,.7-.2.69.69,0,0,1,.7.6.52.52,0,0,1-.2.4C240,102.3,239.9,102.3,239.7,102.3Zm-3.6,5.5a.75.75,0,0,1-.5-.1,1.74,1.74,0,0,0-.3,1.2,1.23,1.23,0,0,0,.5,1,1.8,1.8,0,0,0,.9.4,2.93,2.93,0,0,0,1.6-.4,1.27,1.27,0,0,0,.7-1.1c0-.6-.7-.9-2-.9h-.4A.75.75,0,0,0,236.1,107.8Zm1.7-4.1a2.77,2.77,0,0,0-.3-1.3,1,1,0,0,0-.8-.5.75.75,0,0,0-.7.4,1.8,1.8,0,0,0-.3,1.1,2.66,2.66,0,0,0,.3,1.2.94.94,0,0,0,.8.6C237.5,105.2,237.8,104.7,237.8,103.7Z" transform="translate(-17.3 -12.8)"/><path class="cls-2" d="M249,107.7a4.48,4.48,0,0,1-2-.4,5.6,5.6,0,0,1-1.5-1,3.92,3.92,0,0,1-.8-1.4,4.54,4.54,0,0,1,1.1-4.9,4.45,4.45,0,0,1,3.3-1.3,3.18,3.18,0,0,1,1.4.2c.4.1.7.2,1,.3a2.07,2.07,0,0,0,.6.2,9.69,9.69,0,0,0,.3,2.3l-.5.1a5,5,0,0,0-1-1.8,2.44,2.44,0,0,0-1.8-.6,2.6,2.6,0,0,0-2,1,4.2,4.2,0,0,0-.9,2.9,5.66,5.66,0,0,0,.7,2.9,2.35,2.35,0,0,0,2.1,1.2,4.31,4.31,0,0,0,3.2-1.6l.4.3A5,5,0,0,1,249,107.7Z" transform="translate(-17.3 -12.8)"/><path class="cls-2" d="M253.5,104.7a3.37,3.37,0,0,1,.8-2.3,2.87,2.87,0,0,1,2.3-.9,3.19,3.19,0,0,1,1.4.3,3.59,3.59,0,0,1,1,.7,1.91,1.91,0,0,1,.5,1,3.12,3.12,0,0,1,0,2.2,2.07,2.07,0,0,1-.6,1,2.29,2.29,0,0,1-1,.7,3.19,3.19,0,0,1-1.4.3,2.79,2.79,0,0,1-2.2-.9A3.23,3.23,0,0,1,253.5,104.7Zm2.9-2.6c-.4,0-.7.2-1,.7a3.06,3.06,0,0,0-.3,1.7,3.6,3.6,0,0,0,.2,1.1,3,3,0,0,0,.6,1.1,1.38,1.38,0,0,0,.9.5.82.82,0,0,0,.8-.5,2.83,2.83,0,0,0,.4-1.6,4.32,4.32,0,0,0-.4-2.2A1.41,1.41,0,0,0,256.4,102.1Z" transform="translate(-17.3 -12.8)"/><path class="cls-2" d="M261.4,99.9c0-.4,0-.7-.1-.8s-.2-.2-.3-.2h-.4c-.1,0-.1,0-.1-.1v-.4c.3,0,.8-.1,1.3-.1a4.07,4.07,0,0,0,1-.2c.1,0,.2,0,.2.1v8.3a.52.52,0,0,0,.2.4c.1.1.3.1.5.2h.2a.1.1,0,0,1,.1.1v.3h-3.3v-.3c0-.1,0-.1.1-.1h.2a.76.76,0,0,0,.5-.2.52.52,0,0,0,.2-.4V99.9Z" transform="translate(-17.3 -12.8)"/><path class="cls-2" d="M265.3,99.9c0-.4,0-.7-.1-.8s-.2-.2-.3-.2h-.4c-.1,0-.1,0-.1-.1v-.4c.3,0,.8-.1,1.3-.1a4.07,4.07,0,0,0,1-.2c.1,0,.2,0,.2.1v8.3a.52.52,0,0,0,.2.4c.1.1.3.1.5.2h.2a.1.1,0,0,1,.1.1v.3h-3.3v-.3c0-.1,0-.1.1-.1h.2a.76.76,0,0,0,.5-.2.52.52,0,0,0,.2-.4V99.9Z" transform="translate(-17.3 -12.8)"/><path class="cls-2" d="M271.8,106.9a2.91,2.91,0,0,1-1.7.8,1.7,1.7,0,0,1-1.3-.4,1.25,1.25,0,0,1-.4-1.1,1.43,1.43,0,0,1,.6-1.2,7.84,7.84,0,0,1,1.8-.8l1-.3a4.66,4.66,0,0,0-.2-1.6.84.84,0,0,0-.7-.4,1.48,1.48,0,0,0-.7.1q-.3.15-.3.3v.6c0,.1-.1.2-.2.3a.76.76,0,0,1-.5.2.53.53,0,0,1-.6-.6c0-.4.3-.7.8-1.1a3.32,3.32,0,0,1,1.6-.5,2.54,2.54,0,0,1,1.6.5,2.4,2.4,0,0,1,.6,1.9v2.5a.37.37,0,0,0,.1.3c0,.1.1.2.2.3a.5.5,0,0,0,.6,0l.1-.1a.1.1,0,0,1,.1.1c0,.1.1.1.1.2s0,.1-.2.2a2.19,2.19,0,0,1-.5.3,1.45,1.45,0,0,1-.7.2,2,2,0,0,1-.9-.2,1.41,1.41,0,0,1-.3-.5Zm0-.5v-1.8l-.8.2a1.93,1.93,0,0,0-.9.5,1.08,1.08,0,0,0-.2.8.8.8,0,0,0,.9.9A1.83,1.83,0,0,0,271.8,106.4Z" transform="translate(-17.3 -12.8)"/><path class="cls-2" d="M275.5,99.9c0-.4,0-.7-.1-.8s-.2-.2-.3-.2h-.4c-.1,0-.1,0-.1-.1v-.4c.3,0,.8-.1,1.3-.1a4.07,4.07,0,0,0,1-.2c.1,0,.2,0,.2.1v3.9a2.38,2.38,0,0,1,1.4-.6,2.5,2.5,0,0,1,1.8.8,2.72,2.72,0,0,1,.7,2,3.17,3.17,0,0,1-1,2.5,3.21,3.21,0,0,1-2.2,1,1.62,1.62,0,0,1-1.4-.7l-.4.7-.5-.1c0-.3.1-.7.1-1.1V99.9Zm1.5,6.9a.91.91,0,0,0,.7.3,1.31,1.31,0,0,0,1.2-.7,3.58,3.58,0,0,0,.4-1.9,3.06,3.06,0,0,0-.4-1.7c-.3-.5-.5-.7-.9-.7a2.11,2.11,0,0,0-1.1.4v4.3Z" transform="translate(-17.3 -12.8)"/><path class="cls-2" d="M281.9,104.7a3.37,3.37,0,0,1,.8-2.3,2.87,2.87,0,0,1,2.3-.9,3.19,3.19,0,0,1,1.4.3,3.59,3.59,0,0,1,1,.7,3.13,3.13,0,0,1,.5,1,3.12,3.12,0,0,1,0,2.2,2.07,2.07,0,0,1-.6,1,1.83,1.83,0,0,1-1,.7,5.77,5.77,0,0,1-1.4.3,2.79,2.79,0,0,1-2.2-.9A3.23,3.23,0,0,1,281.9,104.7Zm3-2.6c-.4,0-.7.2-1,.7a3.06,3.06,0,0,0-.3,1.7,3.59,3.59,0,0,0,.2,1.1,4.07,4.07,0,0,0,.6,1.1,1.38,1.38,0,0,0,.9.5.82.82,0,0,0,.8-.5,2.83,2.83,0,0,0,.4-1.6,4.32,4.32,0,0,0-.4-2.2A1.45,1.45,0,0,0,284.9,102.1Z" transform="translate(-17.3 -12.8)"/><path class="cls-2" d="M291.4,102.4a2.4,2.4,0,0,1,1.7-.9,1.42,1.42,0,0,1,.6.2c.1.2.2.3.2.5a1.42,1.42,0,0,1-.2.6c-.1.2-.3.2-.5.2s-.3,0-.4-.1l-.3-.3a.31.31,0,0,0-.2-.1c-.2,0-.3.1-.5.2a1.33,1.33,0,0,0-.4,1v2.9a.37.37,0,0,0,.1.3l.2.2c.1.1.2.1.4.1h.1a.1.1,0,0,1,.1.1v.3h-3.2v-.3c0-.1,0-.1.1-.1h.1a.76.76,0,0,0,.5-.2.52.52,0,0,0,.2-.4v-3.3c0-.3,0-.5-.1-.6a.22.22,0,0,0-.2-.2l-.6-.1v-.5a14.43,14.43,0,0,0,2.3-.4h.1v.9Z" transform="translate(-17.3 -12.8)"/><path class="cls-2" d="M297.9,106.9a2.91,2.91,0,0,1-1.7.8,1.7,1.7,0,0,1-1.3-.4,1.25,1.25,0,0,1-.4-1.1,1.43,1.43,0,0,1,.6-1.2,7.84,7.84,0,0,1,1.8-.8l1-.3a4.66,4.66,0,0,0-.2-1.6.84.84,0,0,0-.7-.4,1.48,1.48,0,0,0-.7.1q-.3.15-.3.3v.6c0,.1-.1.2-.2.3a.76.76,0,0,1-.5.2.53.53,0,0,1-.6-.6c0-.4.3-.7.8-1.1a3.32,3.32,0,0,1,1.6-.5,2.54,2.54,0,0,1,1.6.5,2.4,2.4,0,0,1,.6,1.9v2.5a.37.37,0,0,0,.1.3c0,.1.1.2.2.3a.5.5,0,0,0,.6,0l.1-.1a.1.1,0,0,1,.1.1c0,.1.1.1.1.2l-.2.2a2.19,2.19,0,0,1-.5.3,1.45,1.45,0,0,1-.7.2,2,2,0,0,1-.9-.2c-.1,0-.2-.2-.3-.5Zm0-.5v-1.8l-.8.2a1.93,1.93,0,0,0-.9.5,1.08,1.08,0,0,0-.2.8.8.8,0,0,0,.9.9C297.1,107,297.4,106.8,297.9,106.4Z" transform="translate(-17.3 -12.8)"/><path class="cls-2" d="M303.2,102.3v3.5c0,.7.1,1,.4,1a1.61,1.61,0,0,0,.9-.3l.3.3a2.28,2.28,0,0,1-1.9,1c-.8,0-1.2-.5-1.2-1.4v-4H301c-.2,0-.2,0-.2-.1v-.4c0-.1.2-.1.5-.1a.75.75,0,0,0,.7-.4,2.36,2.36,0,0,0,.2-1.3l1.1-.4v2.2h1.3c.2,0,.3,0,.3.1v.3c0,.2-.2.2-.5.2h-1.2Z" transform="translate(-17.3 -12.8)"/><path class="cls-2" d="M307.9,103.2v3.3a.52.52,0,0,0,.2.4c.1.1.3.1.5.2h.1a.1.1,0,0,1,.1.1v.3h-3.2v-.3c0-.1,0-.1.1-.1h.2a.76.76,0,0,0,.5-.2.52.52,0,0,0,.2-.4v-3.3a1.48,1.48,0,0,0-.1-.7c-.1-.1-.1-.2-.2-.2l-.6-.1v-.4c1.2-.2,2-.3,2.3-.4h.1A6.52,6.52,0,0,0,307.9,103.2Zm-1.3-2.9a.73.73,0,0,1-.2-.6,1.42,1.42,0,0,1,.2-.6.73.73,0,0,1,.6-.2,1.42,1.42,0,0,1,.6.2.73.73,0,0,1,.2.6,1.42,1.42,0,0,1-.2.6.73.73,0,0,1-.6.2C307,100.5,306.7,100.5,306.6,100.3Z" transform="translate(-17.3 -12.8)"/><path class="cls-2" d="M314.9,102.8l-1.6,4.3a1.63,1.63,0,0,1-.3.6.52.52,0,0,1-.4.2c-.2,0-.3-.1-.5-.2a1.63,1.63,0,0,1-.3-.6l-1.6-4a.37.37,0,0,1-.1-.3c0-.1-.1-.2-.2-.3s-.2-.2-.3-.2-.2-.1-.4-.1-.1,0-.1-.1v-.3h3.2v.3c0,.1,0,.1-.1.1H312c-.2,0-.3.1-.3.2a.76.76,0,0,0,.1.4l1.4,3.4,1.2-3.5c.1-.2,0-.3,0-.4s-.3-.1-.5-.2h-.1a.1.1,0,0,1-.1-.1v-.3h2.6v.3c0,.1-.1.1-.2.1C315.3,102.1,315,102.4,314.9,102.8Z" transform="translate(-17.3 -12.8)"/><path class="cls-2" d="M321.5,106.1l.3.3a2.33,2.33,0,0,1-2.4,1.3,3,3,0,0,1-2.2-.8,2.72,2.72,0,0,1-.7-2,3.24,3.24,0,0,1,.9-2.4,2.83,2.83,0,0,1,2-.9,2.11,2.11,0,0,1,1.9.7,3.16,3.16,0,0,1,.6,1.7c0,.2-.2.3-.5.3h-3.3v.4a3.1,3.1,0,0,0,.5,1.7,1.57,1.57,0,0,0,1.3.7A3.09,3.09,0,0,0,321.5,106.1Zm-3.3-2.4h2.2v-.1a1.61,1.61,0,0,0-.3-1.1c-.2-.2-.4-.4-.6-.4a.37.37,0,0,0-.3.1c-.1.1-.2.1-.4.2a2.18,2.18,0,0,0-.4.5A1.55,1.55,0,0,0,318.2,103.7Z" transform="translate(-17.3 -12.8)"/></g></svg>