<?xml version="1.0" encoding="UTF-8"?>
<svg width="307px" height="73px" viewBox="0 0 307 73" version="1.1" xmlns="http://www.w3.org/2000/svg" xmlns:xlink="http://www.w3.org/1999/xlink">
    <!-- Generator: Sketch 46.2 (44496) - http://www.bohemiancoding.com/sketch -->
    <title>logo_export_for_website (1)</title>
    <desc>Created with Sketch.</desc>
    <defs></defs>
    <g id="Page-1" stroke="none" stroke-width="1" fill="none" fill-rule="evenodd">
        <g id="logo_export_for_website-(1)" fill-rule="nonzero" fill="#666666">
            <g id="Group">
                <path d="M0.3,37.1 C0.3,14.2 15.6,0.8 34,0.8 C44,0.8 51.2,5.1 55.7,9.8 L47.5,19.8 C44,16.7 40.4,14.3 34.5,14.3 C23.8,14.3 16.3,22.7 16.3,36.6 C16.3,50.8 22.8,59.1 35.7,59.1 C38.6,59.1 41.4,58.4 43.1,57 L43.1,45.1 L31.7,45.1 L31.7,32.4 L56.9,32.4 L56.9,64.2 C52.1,68.9 43.8,72.6 34.1,72.6 C15.2,72.5 0.3,60.3 0.3,37.1 Z" id="Shape"></path>
                <path d="M83.2,2.1 L102,2.1 L123.6,71.2 L107.1,71.2 L102.9,54.8 L81.7,54.8 L77.5,71.2 L61.6,71.2 L83.2,2.1 Z M84.9,42.6 L99.6,42.6 L98,36.2 C96.1,29.3 94.2,21.1 92.4,13.9 L92,13.9 C90.3,21.2 88.5,29.3 86.6,36.2 L84.9,42.6 Z" id="Shape"></path>
            </g>
            <polygon id="Shape" points="132 2.1 147.6 2.1 147.6 28.7 171.5 28.7 171.5 2.1 187.2 2.1 187.2 71.2 171.5 71.2 171.5 42.4 147.6 42.4 147.6 71.2 132 71.2"></polygon>
            <polygon id="Shape" points="214.8 15.3 195.8 15.3 195.8 2.1 249.4 2.1 249.4 15.2 230.4 15.2 230.4 71.2 214.7 71.2 214.7 15.3"></polygon>
            <path d="M251.8,37.1 C251.8,14.2 267,0.8 284.4,0.8 C293.3,0.8 300.5,5 305.2,9.8 L296.9,19.8 C293.4,16.6 289.7,14.3 284.7,14.3 C275.3,14.3 267.7,22.7 267.7,36.6 C267.7,50.8 274.3,59.1 284.4,59.1 C290,59.1 294.5,56.2 297.9,52.6 L306.2,62.4 C300.6,69 293,72.5 284,72.5 C266.5,72.5 251.8,60.3 251.8,37.1 Z" id="Shape"></path>
        </g>
    </g>
</svg>